<?xml version="1.0" encoding="utf-8" standalone="no"?>
<!DOCTYPE svg PUBLIC "-//W3C//DTD SVG 1.1//EN"
  "http://www.w3.org/Graphics/SVG/1.1/DTD/svg11.dtd">
<svg xmlns:xlink="http://www.w3.org/1999/xlink" width="648pt" height="504pt" viewBox="0 0 648 504" xmlns="http://www.w3.org/2000/svg" version="1.1">
 <metadata>
  <rdf:RDF xmlns:dc="http://purl.org/dc/elements/1.1/" xmlns:cc="http://creativecommons.org/ns#" xmlns:rdf="http://www.w3.org/1999/02/22-rdf-syntax-ns#">
   <cc:Work>
    <dc:type rdf:resource="http://purl.org/dc/dcmitype/StillImage"/>
    <dc:date>2026-02-02T18:10:57.205875</dc:date>
    <dc:format>image/svg+xml</dc:format>
    <dc:creator>
     <cc:Agent>
      <dc:title>Matplotlib v3.10.6, https://matplotlib.org/</dc:title>
     </cc:Agent>
    </dc:creator>
   </cc:Work>
  </rdf:RDF>
 </metadata>
 <defs>
  <style type="text/css">*{stroke-linejoin: round; stroke-linecap: butt}</style>
 </defs>
 <g id="figure_1">
  <g id="patch_1">
   <path d="M 0 504 
L 648 504 
L 648 0 
L 0 0 
z
" style="fill: #ffffff"/>
  </g>
  <g id="axes_1">
   <g id="patch_2">
    <path d="M 47.72 462.04 
L 637.2 462.04 
L 637.2 26.88 
L 47.72 26.88 
z
" style="fill: #ffffff"/>
   </g>
   <g id="FillBetweenPolyCollection_1">
    <path d="M 74.514545 46.937728 
L 74.514545 105.226764 
L 80.535792 107.184247 
L 86.557038 109.166477 
L 92.578284 111.173926 
L 98.59953 113.207079 
L 104.620776 115.266432 
L 110.642022 117.352495 
L 116.663269 119.465791 
L 122.684515 121.606857 
L 128.705761 123.776245 
L 134.727007 125.974519 
L 140.748253 128.20226 
L 146.769499 130.460066 
L 152.790746 132.748548 
L 158.811992 135.068336 
L 164.833238 137.420078 
L 170.854484 139.804437 
L 176.87573 142.222097 
L 182.896977 144.673761 
L 188.918223 147.160151 
L 194.939469 149.68201 
L 200.960715 152.240103 
L 206.981961 154.835216 
L 213.003207 157.468159 
L 219.024454 160.139764 
L 225.0457 162.85089 
L 231.066946 165.602421 
L 237.088192 168.395266 
L 243.109438 171.230362 
L 249.130684 174.108677 
L 255.151931 177.031205 
L 261.173177 179.998974 
L 267.194423 183.013042 
L 273.215669 186.0745 
L 279.236915 189.184477 
L 285.258161 192.344133 
L 291.279408 195.55467 
L 297.300654 198.817325 
L 303.3219 202.13338 
L 309.343146 205.504154 
L 315.364392 208.931015 
L 321.385638 212.415373 
L 327.406885 215.958689 
L 333.428131 219.56247 
L 339.449377 223.228279 
L 345.470623 226.95773 
L 351.491869 230.752496 
L 357.513115 234.614307 
L 363.534362 238.544956 
L 369.555608 242.5463 
L 375.576854 246.620264 
L 381.5981 250.768843 
L 387.619346 254.994105 
L 393.640592 259.298196 
L 399.661839 263.683344 
L 405.683085 268.15186 
L 411.704331 272.706143 
L 417.725577 277.348689 
L 423.746823 288.818328 
L 429.768069 291.659095 
L 435.789316 294.556564 
L 441.810562 297.512449 
L 447.831808 300.753646 
L 453.853054 304.155239 
L 459.8743 307.627551 
L 465.895546 311.172811 
L 471.916793 314.793342 
L 477.938039 318.491566 
L 483.959285 322.270013 
L 489.980531 326.023562 
L 496.001777 330.032486 
L 502.023023 334.131296 
L 508.04427 338.02113 
L 514.065516 341.923834 
L 520.086762 345.917088 
L 526.108008 350.00408 
L 532.129254 354.354754 
L 538.150501 358.941466 
L 544.171747 363.639777 
L 550.192993 368.635353 
L 556.214239 373.764401 
L 562.235485 379.016042 
L 568.256731 384.401216 
L 574.277978 389.925903 
L 580.299224 395.606796 
L 586.32047 401.439587 
L 592.341716 393.136083 
L 598.362962 396.747679 
L 604.384208 399.951589 
L 610.405455 403.242586 
L 610.405455 319.705693 
L 610.405455 319.705693 
L 604.384208 317.462791 
L 598.362962 315.281171 
L 592.341716 313.158354 
L 586.32047 297.847088 
L 580.299224 293.460185 
L 574.277978 289.186933 
L 568.256731 285.102022 
L 562.235485 281.294385 
L 556.214239 277.70325 
L 550.192993 274.200567 
L 544.171747 270.560386 
L 538.150501 266.921978 
L 532.129254 263.545067 
L 526.108008 260.247427 
L 520.086762 257.023539 
L 514.065516 253.866184 
L 508.04427 250.780423 
L 502.023023 247.702065 
L 496.001777 244.447564 
L 489.980531 241.264433 
L 483.959285 238.150351 
L 477.938039 235.406348 
L 471.916793 232.752575 
L 465.895546 229.949759 
L 459.8743 227.197798 
L 453.853054 224.503215 
L 447.831808 221.869595 
L 441.810562 219.289073 
L 435.789316 216.760058 
L 429.768069 214.281023 
L 423.746823 211.850502 
L 417.725577 186.865127 
L 411.704331 183.090946 
L 405.683085 179.388518 
L 399.661839 175.755815 
L 393.640592 172.190886 
L 387.619346 168.691853 
L 381.5981 165.256905 
L 375.576854 161.884297 
L 369.555608 158.572347 
L 363.534362 155.319434 
L 357.513115 152.123993 
L 351.491869 148.984514 
L 345.470623 145.89954 
L 339.449377 142.867663 
L 333.428131 139.887525 
L 327.406885 136.957812 
L 321.385638 134.077256 
L 315.364392 131.244629 
L 309.343146 128.458745 
L 303.3219 125.718457 
L 297.300654 123.022653 
L 291.279408 120.370261 
L 285.258161 117.760239 
L 279.236915 115.19158 
L 273.215669 112.663309 
L 267.194423 110.17448 
L 261.173177 107.724178 
L 255.151931 105.311516 
L 249.130684 102.935631 
L 243.109438 100.595691 
L 237.088192 98.290884 
L 231.066946 96.020427 
L 225.0457 93.783556 
L 219.024454 91.579532 
L 213.003207 89.407637 
L 206.981961 87.267173 
L 200.960715 85.157462 
L 194.939469 83.077848 
L 188.918223 81.027689 
L 182.896977 79.006366 
L 176.87573 77.013273 
L 170.854484 75.047824 
L 164.833238 73.109447 
L 158.811992 71.197587 
L 152.790746 69.311703 
L 146.769499 67.45127 
L 140.748253 65.615775 
L 134.727007 63.804721 
L 128.705761 62.017623 
L 122.684515 60.254009 
L 116.663269 58.513418 
L 110.642022 56.795403 
L 104.620776 55.099527 
L 98.59953 53.425365 
L 92.578284 51.772504 
L 86.557038 50.140538 
L 80.535792 48.529074 
L 74.514545 46.937728 
z
" clip-path="url(#pbd87a27d1a)" style="fill: #1f77b4; fill-opacity: 0.12"/>
   </g>
   <g id="FillBetweenPolyCollection_2">
    <path d="M 74.514545 46.937728 
L 74.514545 105.226764 
L 80.535792 107.184247 
L 86.557038 109.166477 
L 92.578284 111.173926 
L 98.59953 113.207079 
L 104.620776 115.266432 
L 110.642022 117.352495 
L 116.663269 119.465791 
L 122.684515 121.606857 
L 128.705761 123.776245 
L 134.727007 125.511885 
L 140.748253 127.484413 
L 146.769499 129.706152 
L 152.790746 131.964041 
L 158.811992 134.252819 
L 164.833238 136.573122 
L 170.854484 138.925606 
L 176.87573 141.310947 
L 182.896977 143.108443 
L 188.918223 145.221715 
L 194.939469 149.13385 
L 200.960715 153.14161 
L 206.981961 154.780692 
L 213.003207 157.332365 
L 219.024454 159.36647 
L 225.0457 161.458893 
L 231.066946 163.657865 
L 237.088192 165.850309 
L 243.109438 168.089711 
L 249.130684 170.772904 
L 255.151931 175.157172 
L 261.173177 177.178176 
L 267.194423 180.006178 
L 273.215669 182.159914 
L 279.236915 185.665238 
L 285.258161 189.017174 
L 291.279408 191.171935 
L 297.300654 194.022194 
L 303.3219 195.493564 
L 309.343146 200.093184 
L 315.364392 200.469093 
L 321.385638 200.505877 
L 327.406885 202.799699 
L 333.428131 204.238897 
L 339.449377 210.115305 
L 345.470623 213.31042 
L 351.491869 216.527059 
L 357.513115 217.603968 
L 363.534362 221.999123 
L 369.555608 221.477072 
L 375.576854 224.446757 
L 381.5981 228.202409 
L 387.619346 230.536043 
L 393.640592 234.60237 
L 399.661839 240.428924 
L 405.683085 239.896571 
L 411.704331 242.896565 
L 417.725577 245.831352 
L 423.746823 249.062418 
L 429.768069 254.580262 
L 435.789316 257.224562 
L 441.810562 259.553559 
L 447.831808 261.751752 
L 453.853054 262.697355 
L 459.8743 260.646067 
L 465.895546 258.866499 
L 471.916793 258.393284 
L 477.938039 262.372374 
L 483.959285 267.030035 
L 489.980531 273.095097 
L 496.001777 274.858207 
L 502.023023 273.385431 
L 508.04427 271.839237 
L 514.065516 276.001547 
L 520.086762 281.182468 
L 526.108008 283.539667 
L 532.129254 292.262487 
L 538.150501 295.003554 
L 544.171747 294.158327 
L 550.192993 299.860854 
L 556.214239 308.084124 
L 562.235485 313.318254 
L 568.256731 309.321695 
L 574.277978 313.846684 
L 580.299224 319.380988 
L 586.32047 325.58522 
L 592.341716 317.805147 
L 598.362962 325.868375 
L 604.384208 333.97021 
L 610.405455 334.977352 
L 610.405455 252.659753 
L 610.405455 252.659753 
L 604.384208 253.013298 
L 598.362962 243.196398 
L 592.341716 236.613793 
L 586.32047 241.994334 
L 580.299224 236.391057 
L 574.277978 229.185024 
L 568.256731 225.70158 
L 562.235485 227.748126 
L 556.214239 221.436396 
L 550.192993 214.980109 
L 544.171747 209.867941 
L 538.150501 210.61169 
L 532.129254 208.163408 
L 526.108008 203.117483 
L 520.086762 200.171826 
L 514.065516 192.975862 
L 508.04427 189.106809 
L 502.023023 191.74562 
L 496.001777 194.22393 
L 489.980531 193.037738 
L 483.959285 187.125997 
L 477.938039 181.851075 
L 471.916793 177.755224 
L 465.895546 179.00465 
L 459.8743 178.504043 
L 453.853054 180.452449 
L 447.831808 179.898745 
L 441.810562 178.08836 
L 435.789316 176.520125 
L 429.768069 173.837083 
L 423.746823 167.366546 
L 417.725577 164.10745 
L 411.704331 162.001544 
L 405.683085 160.178955 
L 399.661839 161.114698 
L 393.640592 155.195154 
L 387.619346 153.118525 
L 381.5981 151.046321 
L 375.576854 147.449712 
L 369.555608 145.111866 
L 363.534362 145.382512 
L 357.513115 142.994474 
L 351.491869 142.165648 
L 345.470623 139.152567 
L 339.449377 136.769566 
L 333.428131 131.204527 
L 327.406885 129.914222 
L 321.385638 127.641694 
L 315.364392 127.041564 
L 309.343146 126.359587 
L 303.3219 121.966183 
L 297.300654 120.148009 
L 291.279408 117.795606 
L 285.258161 116.525362 
L 279.236915 113.273462 
L 273.215669 109.988434 
L 267.194423 108.198643 
L 261.173177 105.969131 
L 255.151931 104.531242 
L 249.130684 100.408105 
L 243.109438 97.589605 
L 237.088192 95.78767 
L 231.066946 95.255506 
L 225.0457 93.253812 
L 219.024454 91.398697 
L 213.003207 89.798931 
L 206.981961 87.760625 
L 200.960715 86.233104 
L 194.939469 82.223211 
L 188.918223 79.438807 
L 182.896977 77.778497 
L 176.87573 76.413247 
L 170.854484 74.469082 
L 164.833238 72.551695 
L 158.811992 70.660538 
L 152.790746 68.795077 
L 146.769499 66.95479 
L 140.748253 65.374531 
L 134.727007 63.579046 
L 128.705761 62.017623 
L 122.684515 60.254009 
L 116.663269 58.513418 
L 110.642022 56.795403 
L 104.620776 55.099527 
L 98.59953 53.425365 
L 92.578284 51.772504 
L 86.557038 50.140538 
L 80.535792 48.529074 
L 74.514545 46.937728 
z
" clip-path="url(#pbd87a27d1a)" style="fill: #ff7f0e; fill-opacity: 0.12"/>
   </g>
   <g id="FillBetweenPolyCollection_3">
    <path d="M 74.514545 46.937728 
L 74.514545 105.226764 
L 80.535792 107.184247 
L 86.557038 109.166477 
L 92.578284 111.173926 
L 98.59953 113.207079 
L 104.620776 116.092519 
L 110.642022 117.972026 
L 116.663269 119.865086 
L 122.684515 121.968921 
L 128.705761 123.592867 
L 134.727007 125.580237 
L 140.748253 128.722667 
L 146.769499 131.641679 
L 152.790746 133.829678 
L 158.811992 136.740446 
L 164.833238 138.967456 
L 170.854484 140.357009 
L 176.87573 140.846304 
L 182.896977 141.85485 
L 188.918223 143.795175 
L 194.939469 147.661087 
L 200.960715 148.782983 
L 206.981961 150.875157 
L 213.003207 155.580119 
L 219.024454 157.415823 
L 225.0457 159.774247 
L 231.066946 166.214975 
L 237.088192 168.244685 
L 243.109438 169.864882 
L 249.130684 172.608536 
L 255.151931 174.418572 
L 261.173177 176.958949 
L 267.194423 178.208385 
L 273.215669 180.465268 
L 279.236915 180.817384 
L 285.258161 182.444574 
L 291.279408 184.95864 
L 297.300654 187.648016 
L 303.3219 190.104224 
L 309.343146 192.022603 
L 315.364392 193.810753 
L 321.385638 199.481342 
L 327.406885 200.848003 
L 333.428131 202.801961 
L 339.449377 211.024687 
L 345.470623 213.744053 
L 351.491869 215.153111 
L 357.513115 213.769654 
L 363.534362 216.504149 
L 369.555608 217.082569 
L 375.576854 215.823294 
L 381.5981 220.33852 
L 387.619346 223.798992 
L 393.640592 224.601315 
L 399.661839 230.899026 
L 405.683085 233.62161 
L 411.704331 236.546055 
L 417.725577 242.793159 
L 423.746823 242.456695 
L 429.768069 245.374591 
L 435.789316 249.256073 
L 441.810562 251.817678 
L 447.831808 255.655219 
L 453.853054 261.884743 
L 459.8743 259.903844 
L 465.895546 265.127037 
L 471.916793 265.842822 
L 477.938039 269.0433 
L 483.959285 275.53038 
L 489.980531 276.86916 
L 496.001777 278.478781 
L 502.023023 280.641051 
L 508.04427 283.747332 
L 514.065516 286.359535 
L 520.086762 286.395092 
L 526.108008 286.645003 
L 532.129254 285.33539 
L 538.150501 284.597787 
L 544.171747 288.88132 
L 550.192993 296.772226 
L 556.214239 300.946996 
L 562.235485 308.139948 
L 568.256731 309.21068 
L 574.277978 310.749013 
L 580.299224 313.665426 
L 586.32047 321.040431 
L 592.341716 321.204381 
L 598.362962 315.369786 
L 604.384208 322.827685 
L 610.405455 325.207758 
L 610.405455 240.45157 
L 610.405455 240.45157 
L 604.384208 239.210364 
L 598.362962 232.513249 
L 592.341716 234.39655 
L 586.32047 231.857168 
L 580.299224 225.836401 
L 574.277978 223.940163 
L 568.256731 221.718526 
L 562.235485 220.445293 
L 556.214239 215.783174 
L 550.192993 210.764685 
L 544.171747 205.820315 
L 538.150501 202.068131 
L 532.129254 203.666066 
L 526.108008 203.001135 
L 520.086762 204.494521 
L 514.065516 202.974354 
L 508.04427 200.368622 
L 502.023023 197.947207 
L 496.001777 196.666574 
L 489.980531 194.62028 
L 483.959285 193.929711 
L 477.938039 189.960035 
L 471.916793 185.716943 
L 465.895546 184.525031 
L 459.8743 179.958133 
L 453.853054 180.663693 
L 447.831808 174.786836 
L 441.810562 171.605328 
L 435.789316 170.304949 
L 429.768069 166.599512 
L 423.746823 164.300057 
L 417.725577 164.464613 
L 411.704331 158.704477 
L 405.683085 156.328326 
L 399.661839 154.148705 
L 393.640592 148.787717 
L 387.619346 147.493376 
L 381.5981 144.799114 
L 375.576854 140.788682 
L 369.555608 141.197734 
L 363.534362 140.956594 
L 357.513115 138.802234 
L 351.491869 139.952021 
L 345.470623 139.376951 
L 339.449377 137.188974 
L 333.428131 130.148777 
L 327.406885 128.705759 
L 321.385638 127.738972 
L 315.364392 123.194143 
L 309.343146 121.444282 
L 303.3219 118.697437 
L 297.300654 116.637095 
L 291.279408 114.553138 
L 285.258161 112.515715 
L 279.236915 111.023565 
L 273.215669 110.496953 
L 267.194423 109.024187 
L 261.173177 107.157282 
L 255.151931 105.245915 
L 249.130684 103.820363 
L 243.109438 101.327221 
L 237.088192 100.221525 
L 231.066946 98.643908 
L 225.0457 92.986956 
L 219.024454 91.032506 
L 213.003207 89.719037 
L 206.981961 84.580932 
L 200.960715 82.897563 
L 194.939469 82.172726 
L 188.918223 79.279487 
L 182.896977 77.720019 
L 176.87573 76.517977 
L 170.854484 75.921919 
L 164.833238 75.1039 
L 158.811992 73.254916 
L 152.790746 70.473263 
L 146.769499 68.663817 
L 140.748253 65.653449 
L 134.727007 63.567763 
L 128.705761 61.790699 
L 122.684515 60.047321 
L 116.663269 58.350182 
L 110.642022 56.792951 
L 104.620776 55.589759 
L 98.59953 53.425365 
L 92.578284 51.772504 
L 86.557038 50.140538 
L 80.535792 48.529074 
L 74.514545 46.937728 
z
" clip-path="url(#pbd87a27d1a)" style="fill: #2ca02c; fill-opacity: 0.12"/>
   </g>
   <g id="FillBetweenPolyCollection_4">
    <path d="M 74.514545 47.875907 
L 74.514545 105.467236 
L 80.535792 107.36515 
L 86.557038 109.287019 
L 92.578284 110.998478 
L 98.59953 114.080099 
L 104.620776 115.699705 
L 110.642022 119.09327 
L 116.663269 122.141314 
L 122.684515 123.972785 
L 128.705761 126.026052 
L 134.727007 128.109745 
L 140.748253 130.779286 
L 146.769499 132.848426 
L 152.790746 134.987676 
L 158.811992 137.15619 
L 164.833238 140.452358 
L 170.854484 141.865906 
L 176.87573 145.130011 
L 182.896977 147.047355 
L 188.918223 149.948811 
L 194.939469 150.970748 
L 200.960715 152.446384 
L 206.981961 153.854796 
L 213.003207 155.117996 
L 219.024454 157.324734 
L 225.0457 158.677603 
L 231.066946 160.965287 
L 237.088192 164.9752 
L 243.109438 166.187124 
L 249.130684 167.744556 
L 255.151931 169.746812 
L 261.173177 171.592073 
L 267.194423 173.514198 
L 273.215669 177.543467 
L 279.236915 181.195105 
L 285.258161 185.39552 
L 291.279408 184.391207 
L 297.300654 186.148839 
L 303.3219 187.401572 
L 309.343146 190.27022 
L 315.364392 192.239618 
L 321.385638 196.520974 
L 327.406885 198.86959 
L 333.428131 199.725116 
L 339.449377 201.869697 
L 345.470623 201.006133 
L 351.491869 202.533683 
L 357.513115 203.838439 
L 363.534362 206.059079 
L 369.555608 210.721516 
L 375.576854 212.084199 
L 381.5981 214.462125 
L 387.619346 215.421698 
L 393.640592 218.889172 
L 399.661839 218.138056 
L 405.683085 223.127915 
L 411.704331 224.159454 
L 417.725577 228.276941 
L 423.746823 230.630197 
L 429.768069 235.737709 
L 435.789316 239.673784 
L 441.810562 239.818693 
L 447.831808 243.536279 
L 453.853054 243.043135 
L 459.8743 244.473245 
L 465.895546 249.164657 
L 471.916793 250.530454 
L 477.938039 251.059103 
L 483.959285 251.24163 
L 489.980531 254.174646 
L 496.001777 255.966717 
L 502.023023 261.296648 
L 508.04427 259.052339 
L 514.065516 258.968762 
L 520.086762 264.144246 
L 526.108008 266.61323 
L 532.129254 268.363886 
L 538.150501 272.086393 
L 544.171747 277.539585 
L 550.192993 279.295776 
L 556.214239 280.362817 
L 562.235485 279.271465 
L 568.256731 279.291509 
L 574.277978 288.006492 
L 580.299224 288.849749 
L 586.32047 295.000879 
L 592.341716 299.276969 
L 598.362962 301.952053 
L 604.384208 304.446572 
L 610.405455 304.494998 
L 610.405455 225.82004 
L 610.405455 225.82004 
L 604.384208 224.916589 
L 598.362962 223.434171 
L 592.341716 220.535624 
L 586.32047 217.876144 
L 580.299224 210.709393 
L 574.277978 209.921913 
L 568.256731 203.24809 
L 562.235485 200.703657 
L 556.214239 199.57956 
L 550.192993 199.138745 
L 544.171747 197.499745 
L 538.150501 191.376738 
L 532.129254 189.776538 
L 526.108008 187.636597 
L 520.086762 183.639215 
L 514.065516 177.181528 
L 508.04427 176.824355 
L 502.023023 177.312293 
L 496.001777 175.05864 
L 489.980531 172.565495 
L 483.959285 170.097667 
L 477.938039 169.430366 
L 471.916793 169.612875 
L 465.895546 168.256931 
L 459.8743 165.619512 
L 453.853054 165.057856 
L 447.831808 166.852049 
L 441.810562 163.561797 
L 435.789316 163.968087 
L 429.768069 160.129662 
L 423.746823 156.641111 
L 417.725577 153.990025 
L 411.704331 150.97875 
L 405.683085 149.121741 
L 399.661839 145.493036 
L 393.640592 145.993577 
L 387.619346 143.480692 
L 381.5981 142.952307 
L 375.576854 140.510025 
L 369.555608 139.232938 
L 363.534362 135.619465 
L 357.513115 134.101489 
L 351.491869 132.571501 
L 345.470623 131.725456 
L 339.449377 131.586359 
L 333.428131 128.571289 
L 327.406885 127.931477 
L 321.385638 127.15725 
L 315.364392 122.783316 
L 309.343146 120.839464 
L 303.3219 118.363478 
L 297.300654 117.172218 
L 291.279408 115.89711 
L 285.258161 117.19724 
L 279.236915 111.305683 
L 273.215669 108.058364 
L 267.194423 104.09375 
L 261.173177 102.843321 
L 255.151931 101.184879 
L 249.130684 99.547815 
L 243.109438 98.371493 
L 237.088192 97.739273 
L 231.066946 93.86104 
L 225.0457 92.405537 
L 219.024454 91.327079 
L 213.003207 89.503616 
L 206.981961 89.102334 
L 200.960715 88.025519 
L 194.939469 87.147959 
L 188.918223 86.014102 
L 182.896977 83.517883 
L 176.87573 82.019276 
L 170.854484 78.339073 
L 164.833238 77.110193 
L 158.811992 73.946461 
L 152.790746 72.141509 
L 146.769499 70.360915 
L 140.748253 68.60419 
L 134.727007 66.647455 
L 128.705761 64.9478 
L 122.684515 63.456859 
L 116.663269 62.043083 
L 110.642022 59.221379 
L 104.620776 55.921529 
L 98.59953 54.494082 
L 92.578284 52.019775 
L 86.557038 50.745599 
L 80.535792 49.449595 
L 74.514545 47.875907 
z
" clip-path="url(#pbd87a27d1a)" style="fill: #d62728; fill-opacity: 0.12"/>
   </g>
   <g id="FillBetweenPolyCollection_5">
    <path d="M 74.514545 47.86236 
L 74.514545 106.283486 
L 80.535792 108.088685 
L 86.557038 110.053856 
L 92.578284 111.87471 
L 98.59953 113.881125 
L 104.620776 115.913396 
L 110.642022 117.595642 
L 116.663269 120.882067 
L 122.684515 122.97636 
L 128.705761 124.023168 
L 134.727007 125.894558 
L 140.748253 127.362647 
L 146.769499 129.441519 
L 152.790746 132.542709 
L 158.811992 134.710971 
L 164.833238 139.079141 
L 170.854484 142.305343 
L 176.87573 143.588609 
L 182.896977 145.512519 
L 188.918223 147.454353 
L 194.939469 149.735017 
L 200.960715 151.025364 
L 206.981961 153.152025 
L 213.003207 154.961051 
L 219.024454 155.725955 
L 225.0457 155.977209 
L 231.066946 159.433674 
L 237.088192 160.464727 
L 243.109438 163.603456 
L 249.130684 166.440599 
L 255.151931 169.898475 
L 261.173177 171.697487 
L 267.194423 173.317037 
L 273.215669 174.629431 
L 279.236915 178.282421 
L 285.258161 179.800985 
L 291.279408 181.392352 
L 297.300654 183.177601 
L 303.3219 186.163669 
L 309.343146 190.839727 
L 315.364392 193.275764 
L 321.385638 197.058199 
L 327.406885 199.543141 
L 333.428131 202.020864 
L 339.449377 204.209861 
L 345.470623 205.763603 
L 351.491869 205.084752 
L 357.513115 205.746871 
L 363.534362 208.077163 
L 369.555608 212.924469 
L 375.576854 217.242411 
L 381.5981 222.589413 
L 387.619346 225.178023 
L 393.640592 228.247368 
L 399.661839 230.095291 
L 405.683085 237.460417 
L 411.704331 235.780369 
L 417.725577 236.618355 
L 423.746823 243.763976 
L 429.768069 247.146905 
L 435.789316 249.961913 
L 441.810562 255.114566 
L 447.831808 257.951329 
L 453.853054 255.884862 
L 459.8743 258.439233 
L 465.895546 260.30378 
L 471.916793 261.508309 
L 477.938039 266.605234 
L 483.959285 269.056748 
L 489.980531 274.962944 
L 496.001777 281.212595 
L 502.023023 280.744664 
L 508.04427 282.263166 
L 514.065516 277.560202 
L 520.086762 281.841339 
L 526.108008 282.708772 
L 532.129254 279.690579 
L 538.150501 278.929242 
L 544.171747 279.79476 
L 550.192993 285.191934 
L 556.214239 286.042721 
L 562.235485 290.529769 
L 568.256731 294.973784 
L 574.277978 295.565642 
L 580.299224 297.823402 
L 586.32047 301.35191 
L 592.341716 302.202207 
L 598.362962 311.013474 
L 604.384208 316.421325 
L 610.405455 319.720934 
L 610.405455 239.247517 
L 610.405455 239.247517 
L 604.384208 236.774478 
L 598.362962 229.763008 
L 592.341716 221.243948 
L 586.32047 219.106626 
L 580.299224 218.463352 
L 574.277978 215.069008 
L 568.256731 213.59494 
L 562.235485 209.790786 
L 556.214239 206.062951 
L 550.192993 205.602956 
L 544.171747 200.938762 
L 538.150501 200.567461 
L 532.129254 200.114545 
L 526.108008 202.353994 
L 520.086762 201.267776 
L 514.065516 198.265669 
L 508.04427 200.190013 
L 502.023023 201.580759 
L 496.001777 200.810282 
L 489.980531 196.688669 
L 483.959285 190.698383 
L 477.938039 188.058224 
L 471.916793 183.71268 
L 465.895546 181.875243 
L 459.8743 180.910754 
L 453.853054 179.077732 
L 447.831808 178.813238 
L 441.810562 175.366458 
L 435.789316 172.087345 
L 429.768069 169.324731 
L 423.746823 165.954992 
L 417.725577 159.288047 
L 411.704331 158.967175 
L 405.683085 159.629345 
L 399.661839 152.802372 
L 393.640592 151.270664 
L 387.619346 149.342488 
L 381.5981 147.24228 
L 375.576854 142.94629 
L 369.555608 139.002017 
L 363.534362 135.533669 
L 357.513115 133.205652 
L 351.491869 132.717293 
L 345.470623 132.064043 
L 339.449377 131.575971 
L 333.428131 130.10966 
L 327.406885 128.03066 
L 321.385638 125.479186 
L 315.364392 123.282141 
L 309.343146 120.120865 
L 303.3219 116.926667 
L 297.300654 113.914763 
L 291.279408 112.573306 
L 285.258161 112.258904 
L 279.236915 110.457733 
L 273.215669 107.337428 
L 267.194423 106.001108 
L 261.173177 103.771193 
L 255.151931 102.420281 
L 249.130684 99.37914 
L 243.109438 96.304965 
L 237.088192 93.70242 
L 231.066946 92.692626 
L 225.0457 89.763402 
L 219.024454 90.197531 
L 213.003207 89.268467 
L 206.981961 87.721805 
L 200.960715 85.523864 
L 194.939469 84.473905 
L 188.918223 82.622184 
L 182.896977 80.796722 
L 176.87573 79.284379 
L 170.854484 78.071369 
L 164.833238 75.342972 
L 158.811992 71.458167 
L 152.790746 69.791883 
L 146.769499 66.218647 
L 140.748253 64.522905 
L 134.727007 63.218616 
L 128.705761 61.934805 
L 122.684515 60.832412 
L 116.663269 59.174718 
L 110.642022 56.502203 
L 104.620776 54.91954 
L 98.59953 53.282594 
L 92.578284 51.698896 
L 86.557038 50.585403 
L 80.535792 49.015949 
L 74.514545 47.86236 
z
" clip-path="url(#pbd87a27d1a)" style="fill: #9467bd; fill-opacity: 0.12"/>
   </g>
   <g id="FillBetweenPolyCollection_6">
    <path d="M 74.514545 46.66 
L 74.514545 105.873668 
L 80.535792 108.872418 
L 86.557038 112.94494 
L 92.578284 114.250007 
L 98.59953 116.886428 
L 104.620776 118.11716 
L 110.642022 121.526403 
L 116.663269 123.429771 
L 122.684515 124.939608 
L 128.705761 126.521108 
L 134.727007 127.840234 
L 140.748253 129.363368 
L 146.769499 130.867896 
L 152.790746 131.868453 
L 158.811992 135.238053 
L 164.833238 135.687454 
L 170.854484 137.318413 
L 176.87573 140.086204 
L 182.896977 140.882716 
L 188.918223 142.842105 
L 194.939469 147.284253 
L 200.960715 149.308541 
L 206.981961 152.7468 
L 213.003207 155.665523 
L 219.024454 158.94012 
L 225.0457 163.081312 
L 231.066946 164.139949 
L 237.088192 165.284875 
L 243.109438 165.967337 
L 249.130684 167.057123 
L 255.151931 167.933229 
L 261.173177 169.622516 
L 267.194423 173.054537 
L 273.215669 173.405631 
L 279.236915 174.623621 
L 285.258161 178.636812 
L 291.279408 180.774409 
L 297.300654 183.978753 
L 303.3219 185.938768 
L 309.343146 187.303271 
L 315.364392 189.439198 
L 321.385638 192.914747 
L 327.406885 195.783445 
L 333.428131 196.936136 
L 339.449377 199.290764 
L 345.470623 203.11873 
L 351.491869 205.413171 
L 357.513115 206.070113 
L 363.534362 209.798411 
L 369.555608 213.875124 
L 375.576854 216.768468 
L 381.5981 222.178627 
L 387.619346 225.361368 
L 393.640592 226.304004 
L 399.661839 228.974792 
L 405.683085 230.91436 
L 411.704331 233.038829 
L 417.725577 235.499842 
L 423.746823 237.42985 
L 429.768069 239.944274 
L 435.789316 242.94148 
L 441.810562 242.715008 
L 447.831808 242.76764 
L 453.853054 243.425607 
L 459.8743 246.117518 
L 465.895546 247.576629 
L 471.916793 250.245693 
L 477.938039 247.600337 
L 483.959285 248.814877 
L 489.980531 252.91257 
L 496.001777 256.257888 
L 502.023023 258.918751 
L 508.04427 263.668515 
L 514.065516 264.367215 
L 520.086762 265.630879 
L 526.108008 268.16368 
L 532.129254 266.863879 
L 538.150501 271.212077 
L 544.171747 274.084621 
L 550.192993 278.07528 
L 556.214239 282.110573 
L 562.235485 287.126983 
L 568.256731 290.105026 
L 574.277978 292.958216 
L 580.299224 292.517472 
L 586.32047 302.04279 
L 592.341716 302.206972 
L 598.362962 307.391238 
L 604.384208 313.891965 
L 610.405455 319.126528 
L 610.405455 236.199282 
L 610.405455 236.199282 
L 604.384208 230.592977 
L 598.362962 225.035744 
L 592.341716 220.030077 
L 586.32047 220.00164 
L 580.299224 210.328563 
L 574.277978 211.035071 
L 568.256731 208.593105 
L 562.235485 204.626952 
L 556.214239 200.8285 
L 550.192993 197.818694 
L 544.171747 193.021434 
L 538.150501 191.36091 
L 532.129254 188.451968 
L 526.108008 189.293664 
L 520.086762 186.557034 
L 514.065516 184.752758 
L 508.04427 184.052198 
L 502.023023 180.918643 
L 496.001777 176.911034 
L 489.980531 174.982424 
L 483.959285 172.413004 
L 477.938039 171.090019 
L 471.916793 172.316291 
L 465.895546 170.905566 
L 459.8743 169.581268 
L 453.853054 167.92809 
L 447.831808 166.77693 
L 441.810562 168.272673 
L 435.789316 167.898546 
L 429.768069 163.406816 
L 423.746823 161.558852 
L 417.725577 161.696153 
L 411.704331 159.640537 
L 405.683085 158.446676 
L 399.661839 156.754114 
L 393.640592 154.541034 
L 387.619346 153.017331 
L 381.5981 150.65541 
L 375.576854 146.320593 
L 369.555608 142.168674 
L 363.534362 138.426721 
L 357.513115 135.299564 
L 351.491869 134.862589 
L 345.470623 132.183962 
L 339.449377 130.393664 
L 333.428131 128.529883 
L 327.406885 126.63951 
L 321.385638 122.521784 
L 315.364392 120.284016 
L 309.343146 119.088992 
L 303.3219 118.201837 
L 297.300654 117.029704 
L 291.279408 114.366906 
L 285.258161 112.700557 
L 279.236915 107.696447 
L 273.215669 106.614382 
L 267.194423 106.136828 
L 261.173177 103.533657 
L 255.151931 102.18499 
L 249.130684 102.005548 
L 243.109438 100.480125 
L 237.088192 100.121656 
L 231.066946 98.942372 
L 225.0457 98.540697 
L 219.024454 94.519669 
L 213.003207 92.588288 
L 206.981961 90.435749 
L 200.960715 85.31513 
L 194.939469 83.669231 
L 188.918223 78.705245 
L 182.896977 77.39526 
L 176.87573 77.016083 
L 170.854484 74.72313 
L 164.833238 73.456845 
L 158.811992 72.7265 
L 152.790746 70.386869 
L 146.769499 69.354216 
L 140.748253 68.06703 
L 134.727007 67.141342 
L 128.705761 65.659378 
L 122.684515 64.443991 
L 116.663269 63.100017 
L 110.642022 61.564369 
L 104.620776 58.683796 
L 98.59953 57.309621 
L 92.578284 55.354995 
L 86.557038 54.098273 
L 80.535792 49.383805 
L 74.514545 46.66 
z
" clip-path="url(#pbd87a27d1a)" style="fill: #8c564b; fill-opacity: 0.12"/>
   </g>
   <g id="matplotlib.axis_1">
    <g id="xtick_1">
     <g id="line2d_1">
      <defs>
       <path id="m6dfc094e9f" d="M 0 0 
L 0 3.5 
" style="stroke: #000000; stroke-width: 0.8"/>
      </defs>
      <g>
       <use xlink:href="#m6dfc094e9f" x="74.514545" y="462.04" style="stroke: #000000; stroke-width: 0.8"/>
      </g>
     </g>
     <g id="text_1">
      <!-- 0.1 -->
      <g transform="translate(66.562983 476.638438) scale(0.1 -0.1)">
       <defs>
        <path id="DejaVuSans-30" d="M 2034 4250 
Q 1547 4250 1301 3770 
Q 1056 3291 1056 2328 
Q 1056 1369 1301 889 
Q 1547 409 2034 409 
Q 2525 409 2770 889 
Q 3016 1369 3016 2328 
Q 3016 3291 2770 3770 
Q 2525 4250 2034 4250 
z
M 2034 4750 
Q 2819 4750 3233 4129 
Q 3647 3509 3647 2328 
Q 3647 1150 3233 529 
Q 2819 -91 2034 -91 
Q 1250 -91 836 529 
Q 422 1150 422 2328 
Q 422 3509 836 4129 
Q 1250 4750 2034 4750 
z
" transform="scale(0.015625)"/>
        <path id="DejaVuSans-2e" d="M 684 794 
L 1344 794 
L 1344 0 
L 684 0 
L 684 794 
z
" transform="scale(0.015625)"/>
        <path id="DejaVuSans-31" d="M 794 531 
L 1825 531 
L 1825 4091 
L 703 3866 
L 703 4441 
L 1819 4666 
L 2450 4666 
L 2450 531 
L 3481 531 
L 3481 0 
L 794 0 
L 794 531 
z
" transform="scale(0.015625)"/>
       </defs>
       <use xlink:href="#DejaVuSans-30"/>
       <use xlink:href="#DejaVuSans-2e" transform="translate(63.623047 0)"/>
       <use xlink:href="#DejaVuSans-31" transform="translate(95.410156 0)"/>
      </g>
     </g>
    </g>
    <g id="xtick_2">
     <g id="line2d_2">
      <g>
       <use xlink:href="#m6dfc094e9f" x="181.692727" y="462.04" style="stroke: #000000; stroke-width: 0.8"/>
      </g>
     </g>
     <g id="text_2">
      <!-- 0.2 -->
      <g transform="translate(173.741165 476.638438) scale(0.1 -0.1)">
       <defs>
        <path id="DejaVuSans-32" d="M 1228 531 
L 3431 531 
L 3431 0 
L 469 0 
L 469 531 
Q 828 903 1448 1529 
Q 2069 2156 2228 2338 
Q 2531 2678 2651 2914 
Q 2772 3150 2772 3378 
Q 2772 3750 2511 3984 
Q 2250 4219 1831 4219 
Q 1534 4219 1204 4116 
Q 875 4013 500 3803 
L 500 4441 
Q 881 4594 1212 4672 
Q 1544 4750 1819 4750 
Q 2544 4750 2975 4387 
Q 3406 4025 3406 3419 
Q 3406 3131 3298 2873 
Q 3191 2616 2906 2266 
Q 2828 2175 2409 1742 
Q 1991 1309 1228 531 
z
" transform="scale(0.015625)"/>
       </defs>
       <use xlink:href="#DejaVuSans-30"/>
       <use xlink:href="#DejaVuSans-2e" transform="translate(63.623047 0)"/>
       <use xlink:href="#DejaVuSans-32" transform="translate(95.410156 0)"/>
      </g>
     </g>
    </g>
    <g id="xtick_3">
     <g id="line2d_3">
      <g>
       <use xlink:href="#m6dfc094e9f" x="288.870909" y="462.04" style="stroke: #000000; stroke-width: 0.8"/>
      </g>
     </g>
     <g id="text_3">
      <!-- 0.3 -->
      <g transform="translate(280.919347 476.638438) scale(0.1 -0.1)">
       <defs>
        <path id="DejaVuSans-33" d="M 2597 2516 
Q 3050 2419 3304 2112 
Q 3559 1806 3559 1356 
Q 3559 666 3084 287 
Q 2609 -91 1734 -91 
Q 1441 -91 1130 -33 
Q 819 25 488 141 
L 488 750 
Q 750 597 1062 519 
Q 1375 441 1716 441 
Q 2309 441 2620 675 
Q 2931 909 2931 1356 
Q 2931 1769 2642 2001 
Q 2353 2234 1838 2234 
L 1294 2234 
L 1294 2753 
L 1863 2753 
Q 2328 2753 2575 2939 
Q 2822 3125 2822 3475 
Q 2822 3834 2567 4026 
Q 2313 4219 1838 4219 
Q 1578 4219 1281 4162 
Q 984 4106 628 3988 
L 628 4550 
Q 988 4650 1302 4700 
Q 1616 4750 1894 4750 
Q 2613 4750 3031 4423 
Q 3450 4097 3450 3541 
Q 3450 3153 3228 2886 
Q 3006 2619 2597 2516 
z
" transform="scale(0.015625)"/>
       </defs>
       <use xlink:href="#DejaVuSans-30"/>
       <use xlink:href="#DejaVuSans-2e" transform="translate(63.623047 0)"/>
       <use xlink:href="#DejaVuSans-33" transform="translate(95.410156 0)"/>
      </g>
     </g>
    </g>
    <g id="xtick_4">
     <g id="line2d_4">
      <g>
       <use xlink:href="#m6dfc094e9f" x="396.049091" y="462.04" style="stroke: #000000; stroke-width: 0.8"/>
      </g>
     </g>
     <g id="text_4">
      <!-- 0.4 -->
      <g transform="translate(388.097528 476.638438) scale(0.1 -0.1)">
       <defs>
        <path id="DejaVuSans-34" d="M 2419 4116 
L 825 1625 
L 2419 1625 
L 2419 4116 
z
M 2253 4666 
L 3047 4666 
L 3047 1625 
L 3713 1625 
L 3713 1100 
L 3047 1100 
L 3047 0 
L 2419 0 
L 2419 1100 
L 313 1100 
L 313 1709 
L 2253 4666 
z
" transform="scale(0.015625)"/>
       </defs>
       <use xlink:href="#DejaVuSans-30"/>
       <use xlink:href="#DejaVuSans-2e" transform="translate(63.623047 0)"/>
       <use xlink:href="#DejaVuSans-34" transform="translate(95.410156 0)"/>
      </g>
     </g>
    </g>
    <g id="xtick_5">
     <g id="line2d_5">
      <g>
       <use xlink:href="#m6dfc094e9f" x="503.227273" y="462.04" style="stroke: #000000; stroke-width: 0.8"/>
      </g>
     </g>
     <g id="text_5">
      <!-- 0.5 -->
      <g transform="translate(495.27571 476.638438) scale(0.1 -0.1)">
       <defs>
        <path id="DejaVuSans-35" d="M 691 4666 
L 3169 4666 
L 3169 4134 
L 1269 4134 
L 1269 2991 
Q 1406 3038 1543 3061 
Q 1681 3084 1819 3084 
Q 2600 3084 3056 2656 
Q 3513 2228 3513 1497 
Q 3513 744 3044 326 
Q 2575 -91 1722 -91 
Q 1428 -91 1123 -41 
Q 819 9 494 109 
L 494 744 
Q 775 591 1075 516 
Q 1375 441 1709 441 
Q 2250 441 2565 725 
Q 2881 1009 2881 1497 
Q 2881 1984 2565 2268 
Q 2250 2553 1709 2553 
Q 1456 2553 1204 2497 
Q 953 2441 691 2322 
L 691 4666 
z
" transform="scale(0.015625)"/>
       </defs>
       <use xlink:href="#DejaVuSans-30"/>
       <use xlink:href="#DejaVuSans-2e" transform="translate(63.623047 0)"/>
       <use xlink:href="#DejaVuSans-35" transform="translate(95.410156 0)"/>
      </g>
     </g>
    </g>
    <g id="xtick_6">
     <g id="line2d_6">
      <g>
       <use xlink:href="#m6dfc094e9f" x="610.405455" y="462.04" style="stroke: #000000; stroke-width: 0.8"/>
      </g>
     </g>
     <g id="text_6">
      <!-- 0.6 -->
      <g transform="translate(602.453892 476.638438) scale(0.1 -0.1)">
       <defs>
        <path id="DejaVuSans-36" d="M 2113 2584 
Q 1688 2584 1439 2293 
Q 1191 2003 1191 1497 
Q 1191 994 1439 701 
Q 1688 409 2113 409 
Q 2538 409 2786 701 
Q 3034 994 3034 1497 
Q 3034 2003 2786 2293 
Q 2538 2584 2113 2584 
z
M 3366 4563 
L 3366 3988 
Q 3128 4100 2886 4159 
Q 2644 4219 2406 4219 
Q 1781 4219 1451 3797 
Q 1122 3375 1075 2522 
Q 1259 2794 1537 2939 
Q 1816 3084 2150 3084 
Q 2853 3084 3261 2657 
Q 3669 2231 3669 1497 
Q 3669 778 3244 343 
Q 2819 -91 2113 -91 
Q 1303 -91 875 529 
Q 447 1150 447 2328 
Q 447 3434 972 4092 
Q 1497 4750 2381 4750 
Q 2619 4750 2861 4703 
Q 3103 4656 3366 4563 
z
" transform="scale(0.015625)"/>
       </defs>
       <use xlink:href="#DejaVuSans-30"/>
       <use xlink:href="#DejaVuSans-2e" transform="translate(63.623047 0)"/>
       <use xlink:href="#DejaVuSans-36" transform="translate(95.410156 0)"/>
      </g>
     </g>
    </g>
    <g id="text_7">
     <!-- Threshold probability -->
     <g transform="translate(289.556875 490.316563) scale(0.1 -0.1)">
      <defs>
       <path id="DejaVuSans-54" d="M -19 4666 
L 3928 4666 
L 3928 4134 
L 2272 4134 
L 2272 0 
L 1638 0 
L 1638 4134 
L -19 4134 
L -19 4666 
z
" transform="scale(0.015625)"/>
       <path id="DejaVuSans-68" d="M 3513 2113 
L 3513 0 
L 2938 0 
L 2938 2094 
Q 2938 2591 2744 2837 
Q 2550 3084 2163 3084 
Q 1697 3084 1428 2787 
Q 1159 2491 1159 1978 
L 1159 0 
L 581 0 
L 581 4863 
L 1159 4863 
L 1159 2956 
Q 1366 3272 1645 3428 
Q 1925 3584 2291 3584 
Q 2894 3584 3203 3211 
Q 3513 2838 3513 2113 
z
" transform="scale(0.015625)"/>
       <path id="DejaVuSans-72" d="M 2631 2963 
Q 2534 3019 2420 3045 
Q 2306 3072 2169 3072 
Q 1681 3072 1420 2755 
Q 1159 2438 1159 1844 
L 1159 0 
L 581 0 
L 581 3500 
L 1159 3500 
L 1159 2956 
Q 1341 3275 1631 3429 
Q 1922 3584 2338 3584 
Q 2397 3584 2469 3576 
Q 2541 3569 2628 3553 
L 2631 2963 
z
" transform="scale(0.015625)"/>
       <path id="DejaVuSans-65" d="M 3597 1894 
L 3597 1613 
L 953 1613 
Q 991 1019 1311 708 
Q 1631 397 2203 397 
Q 2534 397 2845 478 
Q 3156 559 3463 722 
L 3463 178 
Q 3153 47 2828 -22 
Q 2503 -91 2169 -91 
Q 1331 -91 842 396 
Q 353 884 353 1716 
Q 353 2575 817 3079 
Q 1281 3584 2069 3584 
Q 2775 3584 3186 3129 
Q 3597 2675 3597 1894 
z
M 3022 2063 
Q 3016 2534 2758 2815 
Q 2500 3097 2075 3097 
Q 1594 3097 1305 2825 
Q 1016 2553 972 2059 
L 3022 2063 
z
" transform="scale(0.015625)"/>
       <path id="DejaVuSans-73" d="M 2834 3397 
L 2834 2853 
Q 2591 2978 2328 3040 
Q 2066 3103 1784 3103 
Q 1356 3103 1142 2972 
Q 928 2841 928 2578 
Q 928 2378 1081 2264 
Q 1234 2150 1697 2047 
L 1894 2003 
Q 2506 1872 2764 1633 
Q 3022 1394 3022 966 
Q 3022 478 2636 193 
Q 2250 -91 1575 -91 
Q 1294 -91 989 -36 
Q 684 19 347 128 
L 347 722 
Q 666 556 975 473 
Q 1284 391 1588 391 
Q 1994 391 2212 530 
Q 2431 669 2431 922 
Q 2431 1156 2273 1281 
Q 2116 1406 1581 1522 
L 1381 1569 
Q 847 1681 609 1914 
Q 372 2147 372 2553 
Q 372 3047 722 3315 
Q 1072 3584 1716 3584 
Q 2034 3584 2315 3537 
Q 2597 3491 2834 3397 
z
" transform="scale(0.015625)"/>
       <path id="DejaVuSans-6f" d="M 1959 3097 
Q 1497 3097 1228 2736 
Q 959 2375 959 1747 
Q 959 1119 1226 758 
Q 1494 397 1959 397 
Q 2419 397 2687 759 
Q 2956 1122 2956 1747 
Q 2956 2369 2687 2733 
Q 2419 3097 1959 3097 
z
M 1959 3584 
Q 2709 3584 3137 3096 
Q 3566 2609 3566 1747 
Q 3566 888 3137 398 
Q 2709 -91 1959 -91 
Q 1206 -91 779 398 
Q 353 888 353 1747 
Q 353 2609 779 3096 
Q 1206 3584 1959 3584 
z
" transform="scale(0.015625)"/>
       <path id="DejaVuSans-6c" d="M 603 4863 
L 1178 4863 
L 1178 0 
L 603 0 
L 603 4863 
z
" transform="scale(0.015625)"/>
       <path id="DejaVuSans-64" d="M 2906 2969 
L 2906 4863 
L 3481 4863 
L 3481 0 
L 2906 0 
L 2906 525 
Q 2725 213 2448 61 
Q 2172 -91 1784 -91 
Q 1150 -91 751 415 
Q 353 922 353 1747 
Q 353 2572 751 3078 
Q 1150 3584 1784 3584 
Q 2172 3584 2448 3432 
Q 2725 3281 2906 2969 
z
M 947 1747 
Q 947 1113 1208 752 
Q 1469 391 1925 391 
Q 2381 391 2643 752 
Q 2906 1113 2906 1747 
Q 2906 2381 2643 2742 
Q 2381 3103 1925 3103 
Q 1469 3103 1208 2742 
Q 947 2381 947 1747 
z
" transform="scale(0.015625)"/>
       <path id="DejaVuSans-20" transform="scale(0.015625)"/>
       <path id="DejaVuSans-70" d="M 1159 525 
L 1159 -1331 
L 581 -1331 
L 581 3500 
L 1159 3500 
L 1159 2969 
Q 1341 3281 1617 3432 
Q 1894 3584 2278 3584 
Q 2916 3584 3314 3078 
Q 3713 2572 3713 1747 
Q 3713 922 3314 415 
Q 2916 -91 2278 -91 
Q 1894 -91 1617 61 
Q 1341 213 1159 525 
z
M 3116 1747 
Q 3116 2381 2855 2742 
Q 2594 3103 2138 3103 
Q 1681 3103 1420 2742 
Q 1159 2381 1159 1747 
Q 1159 1113 1420 752 
Q 1681 391 2138 391 
Q 2594 391 2855 752 
Q 3116 1113 3116 1747 
z
" transform="scale(0.015625)"/>
       <path id="DejaVuSans-62" d="M 3116 1747 
Q 3116 2381 2855 2742 
Q 2594 3103 2138 3103 
Q 1681 3103 1420 2742 
Q 1159 2381 1159 1747 
Q 1159 1113 1420 752 
Q 1681 391 2138 391 
Q 2594 391 2855 752 
Q 3116 1113 3116 1747 
z
M 1159 2969 
Q 1341 3281 1617 3432 
Q 1894 3584 2278 3584 
Q 2916 3584 3314 3078 
Q 3713 2572 3713 1747 
Q 3713 922 3314 415 
Q 2916 -91 2278 -91 
Q 1894 -91 1617 61 
Q 1341 213 1159 525 
L 1159 0 
L 581 0 
L 581 4863 
L 1159 4863 
L 1159 2969 
z
" transform="scale(0.015625)"/>
       <path id="DejaVuSans-61" d="M 2194 1759 
Q 1497 1759 1228 1600 
Q 959 1441 959 1056 
Q 959 750 1161 570 
Q 1363 391 1709 391 
Q 2188 391 2477 730 
Q 2766 1069 2766 1631 
L 2766 1759 
L 2194 1759 
z
M 3341 1997 
L 3341 0 
L 2766 0 
L 2766 531 
Q 2569 213 2275 61 
Q 1981 -91 1556 -91 
Q 1019 -91 701 211 
Q 384 513 384 1019 
Q 384 1609 779 1909 
Q 1175 2209 1959 2209 
L 2766 2209 
L 2766 2266 
Q 2766 2663 2505 2880 
Q 2244 3097 1772 3097 
Q 1472 3097 1187 3025 
Q 903 2953 641 2809 
L 641 3341 
Q 956 3463 1253 3523 
Q 1550 3584 1831 3584 
Q 2591 3584 2966 3190 
Q 3341 2797 3341 1997 
z
" transform="scale(0.015625)"/>
       <path id="DejaVuSans-69" d="M 603 3500 
L 1178 3500 
L 1178 0 
L 603 0 
L 603 3500 
z
M 603 4863 
L 1178 4863 
L 1178 4134 
L 603 4134 
L 603 4863 
z
" transform="scale(0.015625)"/>
       <path id="DejaVuSans-74" d="M 1172 4494 
L 1172 3500 
L 2356 3500 
L 2356 3053 
L 1172 3053 
L 1172 1153 
Q 1172 725 1289 603 
Q 1406 481 1766 481 
L 2356 481 
L 2356 0 
L 1766 0 
Q 1100 0 847 248 
Q 594 497 594 1153 
L 594 3053 
L 172 3053 
L 172 3500 
L 594 3500 
L 594 4494 
L 1172 4494 
z
" transform="scale(0.015625)"/>
       <path id="DejaVuSans-79" d="M 2059 -325 
Q 1816 -950 1584 -1140 
Q 1353 -1331 966 -1331 
L 506 -1331 
L 506 -850 
L 844 -850 
Q 1081 -850 1212 -737 
Q 1344 -625 1503 -206 
L 1606 56 
L 191 3500 
L 800 3500 
L 1894 763 
L 2988 3500 
L 3597 3500 
L 2059 -325 
z
" transform="scale(0.015625)"/>
      </defs>
      <use xlink:href="#DejaVuSans-54"/>
      <use xlink:href="#DejaVuSans-68" transform="translate(61.083984 0)"/>
      <use xlink:href="#DejaVuSans-72" transform="translate(124.462891 0)"/>
      <use xlink:href="#DejaVuSans-65" transform="translate(163.326172 0)"/>
      <use xlink:href="#DejaVuSans-73" transform="translate(224.849609 0)"/>
      <use xlink:href="#DejaVuSans-68" transform="translate(276.949219 0)"/>
      <use xlink:href="#DejaVuSans-6f" transform="translate(340.328125 0)"/>
      <use xlink:href="#DejaVuSans-6c" transform="translate(401.509766 0)"/>
      <use xlink:href="#DejaVuSans-64" transform="translate(429.292969 0)"/>
      <use xlink:href="#DejaVuSans-20" transform="translate(492.769531 0)"/>
      <use xlink:href="#DejaVuSans-70" transform="translate(524.556641 0)"/>
      <use xlink:href="#DejaVuSans-72" transform="translate(588.033203 0)"/>
      <use xlink:href="#DejaVuSans-6f" transform="translate(626.896484 0)"/>
      <use xlink:href="#DejaVuSans-62" transform="translate(688.078125 0)"/>
      <use xlink:href="#DejaVuSans-61" transform="translate(751.554688 0)"/>
      <use xlink:href="#DejaVuSans-62" transform="translate(812.833984 0)"/>
      <use xlink:href="#DejaVuSans-69" transform="translate(876.310547 0)"/>
      <use xlink:href="#DejaVuSans-6c" transform="translate(904.09375 0)"/>
      <use xlink:href="#DejaVuSans-69" transform="translate(931.876953 0)"/>
      <use xlink:href="#DejaVuSans-74" transform="translate(959.660156 0)"/>
      <use xlink:href="#DejaVuSans-79" transform="translate(998.869141 0)"/>
     </g>
    </g>
   </g>
   <g id="matplotlib.axis_2">
    <g id="ytick_1">
     <g id="line2d_7">
      <defs>
       <path id="m866be0a99d" d="M 0 0 
L -3.5 0 
" style="stroke: #000000; stroke-width: 0.8"/>
      </defs>
      <g>
       <use xlink:href="#m866be0a99d" x="47.72" y="442.26" style="stroke: #000000; stroke-width: 0.8"/>
      </g>
     </g>
     <g id="text_8">
      <!-- 0.0 -->
      <g transform="translate(24.816875 446.059219) scale(0.1 -0.1)">
       <use xlink:href="#DejaVuSans-30"/>
       <use xlink:href="#DejaVuSans-2e" transform="translate(63.623047 0)"/>
       <use xlink:href="#DejaVuSans-30" transform="translate(95.410156 0)"/>
      </g>
     </g>
    </g>
    <g id="ytick_2">
     <g id="line2d_8">
      <g>
       <use xlink:href="#m866be0a99d" x="47.72" y="377.393549" style="stroke: #000000; stroke-width: 0.8"/>
      </g>
     </g>
     <g id="text_9">
      <!-- 0.1 -->
      <g transform="translate(24.816875 381.192768) scale(0.1 -0.1)">
       <use xlink:href="#DejaVuSans-30"/>
       <use xlink:href="#DejaVuSans-2e" transform="translate(63.623047 0)"/>
       <use xlink:href="#DejaVuSans-31" transform="translate(95.410156 0)"/>
      </g>
     </g>
    </g>
    <g id="ytick_3">
     <g id="line2d_9">
      <g>
       <use xlink:href="#m866be0a99d" x="47.72" y="312.527098" style="stroke: #000000; stroke-width: 0.8"/>
      </g>
     </g>
     <g id="text_10">
      <!-- 0.2 -->
      <g transform="translate(24.816875 316.326317) scale(0.1 -0.1)">
       <use xlink:href="#DejaVuSans-30"/>
       <use xlink:href="#DejaVuSans-2e" transform="translate(63.623047 0)"/>
       <use xlink:href="#DejaVuSans-32" transform="translate(95.410156 0)"/>
      </g>
     </g>
    </g>
    <g id="ytick_4">
     <g id="line2d_10">
      <g>
       <use xlink:href="#m866be0a99d" x="47.72" y="247.660647" style="stroke: #000000; stroke-width: 0.8"/>
      </g>
     </g>
     <g id="text_11">
      <!-- 0.3 -->
      <g transform="translate(24.816875 251.459866) scale(0.1 -0.1)">
       <use xlink:href="#DejaVuSans-30"/>
       <use xlink:href="#DejaVuSans-2e" transform="translate(63.623047 0)"/>
       <use xlink:href="#DejaVuSans-33" transform="translate(95.410156 0)"/>
      </g>
     </g>
    </g>
    <g id="ytick_5">
     <g id="line2d_11">
      <g>
       <use xlink:href="#m866be0a99d" x="47.72" y="182.794196" style="stroke: #000000; stroke-width: 0.8"/>
      </g>
     </g>
     <g id="text_12">
      <!-- 0.4 -->
      <g transform="translate(24.816875 186.593415) scale(0.1 -0.1)">
       <use xlink:href="#DejaVuSans-30"/>
       <use xlink:href="#DejaVuSans-2e" transform="translate(63.623047 0)"/>
       <use xlink:href="#DejaVuSans-34" transform="translate(95.410156 0)"/>
      </g>
     </g>
    </g>
    <g id="ytick_6">
     <g id="line2d_12">
      <g>
       <use xlink:href="#m866be0a99d" x="47.72" y="117.927745" style="stroke: #000000; stroke-width: 0.8"/>
      </g>
     </g>
     <g id="text_13">
      <!-- 0.5 -->
      <g transform="translate(24.816875 121.726964) scale(0.1 -0.1)">
       <use xlink:href="#DejaVuSans-30"/>
       <use xlink:href="#DejaVuSans-2e" transform="translate(63.623047 0)"/>
       <use xlink:href="#DejaVuSans-35" transform="translate(95.410156 0)"/>
      </g>
     </g>
    </g>
    <g id="ytick_7">
     <g id="line2d_13">
      <g>
       <use xlink:href="#m866be0a99d" x="47.72" y="53.061294" style="stroke: #000000; stroke-width: 0.8"/>
      </g>
     </g>
     <g id="text_14">
      <!-- 0.6 -->
      <g transform="translate(24.816875 56.860513) scale(0.1 -0.1)">
       <use xlink:href="#DejaVuSans-30"/>
       <use xlink:href="#DejaVuSans-2e" transform="translate(63.623047 0)"/>
       <use xlink:href="#DejaVuSans-36" transform="translate(95.410156 0)"/>
      </g>
     </g>
    </g>
    <g id="text_15">
     <!-- Net benefit -->
     <g transform="translate(18.737188 272.431875) rotate(-90) scale(0.1 -0.1)">
      <defs>
       <path id="DejaVuSans-4e" d="M 628 4666 
L 1478 4666 
L 3547 763 
L 3547 4666 
L 4159 4666 
L 4159 0 
L 3309 0 
L 1241 3903 
L 1241 0 
L 628 0 
L 628 4666 
z
" transform="scale(0.015625)"/>
       <path id="DejaVuSans-6e" d="M 3513 2113 
L 3513 0 
L 2938 0 
L 2938 2094 
Q 2938 2591 2744 2837 
Q 2550 3084 2163 3084 
Q 1697 3084 1428 2787 
Q 1159 2491 1159 1978 
L 1159 0 
L 581 0 
L 581 3500 
L 1159 3500 
L 1159 2956 
Q 1366 3272 1645 3428 
Q 1925 3584 2291 3584 
Q 2894 3584 3203 3211 
Q 3513 2838 3513 2113 
z
" transform="scale(0.015625)"/>
       <path id="DejaVuSans-66" d="M 2375 4863 
L 2375 4384 
L 1825 4384 
Q 1516 4384 1395 4259 
Q 1275 4134 1275 3809 
L 1275 3500 
L 2222 3500 
L 2222 3053 
L 1275 3053 
L 1275 0 
L 697 0 
L 697 3053 
L 147 3053 
L 147 3500 
L 697 3500 
L 697 3744 
Q 697 4328 969 4595 
Q 1241 4863 1831 4863 
L 2375 4863 
z
" transform="scale(0.015625)"/>
      </defs>
      <use xlink:href="#DejaVuSans-4e"/>
      <use xlink:href="#DejaVuSans-65" transform="translate(74.804688 0)"/>
      <use xlink:href="#DejaVuSans-74" transform="translate(136.328125 0)"/>
      <use xlink:href="#DejaVuSans-20" transform="translate(175.537109 0)"/>
      <use xlink:href="#DejaVuSans-62" transform="translate(207.324219 0)"/>
      <use xlink:href="#DejaVuSans-65" transform="translate(270.800781 0)"/>
      <use xlink:href="#DejaVuSans-6e" transform="translate(332.324219 0)"/>
      <use xlink:href="#DejaVuSans-65" transform="translate(395.703125 0)"/>
      <use xlink:href="#DejaVuSans-66" transform="translate(457.226562 0)"/>
      <use xlink:href="#DejaVuSans-69" transform="translate(492.431641 0)"/>
      <use xlink:href="#DejaVuSans-74" transform="translate(520.214844 0)"/>
     </g>
    </g>
   </g>
   <g id="line2d_14">
    <path d="M 74.514545 442.26 
L 80.535792 442.26 
L 86.557038 442.26 
L 92.578284 442.26 
L 98.59953 442.26 
L 104.620776 442.26 
L 110.642022 442.26 
L 116.663269 442.26 
L 122.684515 442.26 
L 128.705761 442.26 
L 134.727007 442.26 
L 140.748253 442.26 
L 146.769499 442.26 
L 152.790746 442.26 
L 158.811992 442.26 
L 164.833238 442.26 
L 170.854484 442.26 
L 176.87573 442.26 
L 182.896977 442.26 
L 188.918223 442.26 
L 194.939469 442.26 
L 200.960715 442.26 
L 206.981961 442.26 
L 213.003207 442.26 
L 219.024454 442.26 
L 225.0457 442.26 
L 231.066946 442.26 
L 237.088192 442.26 
L 243.109438 442.26 
L 249.130684 442.26 
L 255.151931 442.26 
L 261.173177 442.26 
L 267.194423 442.26 
L 273.215669 442.26 
L 279.236915 442.26 
L 285.258161 442.26 
L 291.279408 442.26 
L 297.300654 442.26 
L 303.3219 442.26 
L 309.343146 442.26 
L 315.364392 442.26 
L 321.385638 442.26 
L 327.406885 442.26 
L 333.428131 442.26 
L 339.449377 442.26 
L 345.470623 442.26 
L 351.491869 442.26 
L 357.513115 442.26 
L 363.534362 442.26 
L 369.555608 442.26 
L 375.576854 442.26 
L 381.5981 442.26 
L 387.619346 442.26 
L 393.640592 442.26 
L 399.661839 442.26 
L 405.683085 442.26 
L 411.704331 442.26 
L 417.725577 442.26 
L 423.746823 442.26 
L 429.768069 442.26 
L 435.789316 442.26 
L 441.810562 442.26 
L 447.831808 442.26 
L 453.853054 442.26 
L 459.8743 442.26 
L 465.895546 442.26 
L 471.916793 442.26 
L 477.938039 442.26 
L 483.959285 442.26 
L 489.980531 442.26 
L 496.001777 442.26 
L 502.023023 442.26 
L 508.04427 442.26 
L 514.065516 442.26 
L 520.086762 442.26 
L 526.108008 442.26 
L 532.129254 442.26 
L 538.150501 442.26 
L 544.171747 442.26 
L 550.192993 442.26 
L 556.214239 442.26 
L 562.235485 442.26 
L 568.256731 442.26 
L 574.277978 442.26 
L 580.299224 442.26 
L 586.32047 442.26 
L 592.341716 442.26 
L 598.362962 442.26 
L 604.384208 442.26 
L 610.405455 442.26 
" clip-path="url(#pbd87a27d1a)" style="fill: none; stroke-dasharray: 4.44,1.92; stroke-dashoffset: 0; stroke: #1f77b4; stroke-width: 1.2"/>
   </g>
   <g id="line2d_15">
    <path d="M 74.514545 76.742697 
L 80.535792 78.52126 
L 86.557038 80.322308 
L 92.578284 82.14627 
L 98.59953 83.993586 
L 104.620776 85.864708 
L 110.642022 87.760098 
L 116.663269 89.680233 
L 122.684515 91.625599 
L 128.705761 93.596698 
L 134.727007 95.594043 
L 140.748253 97.618161 
L 146.769499 99.669597 
L 152.790746 101.748904 
L 158.811992 103.856657 
L 164.833238 105.993442 
L 170.854484 108.159863 
L 176.87573 110.356542 
L 182.896977 112.584116 
L 188.918223 114.843242 
L 194.939469 117.134595 
L 200.960715 119.458871 
L 206.981961 121.816782 
L 213.003207 124.209066 
L 219.024454 126.636478 
L 225.0457 129.099799 
L 231.066946 131.599831 
L 237.088192 134.137401 
L 243.109438 136.713361 
L 249.130684 139.328589 
L 255.151931 141.983989 
L 261.173177 144.680494 
L 267.194423 147.419067 
L 273.215669 150.200699 
L 279.236915 153.026414 
L 285.258161 155.897268 
L 291.279408 158.814351 
L 297.300654 161.77879 
L 303.3219 164.791747 
L 309.343146 167.854422 
L 315.364392 170.968057 
L 321.385638 174.133934 
L 327.406885 177.35338 
L 333.428131 180.627764 
L 339.449377 183.958507 
L 345.470623 187.347075 
L 351.491869 190.794987 
L 357.513115 194.303816 
L 363.534362 197.875192 
L 369.555608 201.510801 
L 375.576854 205.212392 
L 381.5981 208.981777 
L 387.619346 212.820837 
L 393.640592 216.731521 
L 399.661839 220.715853 
L 405.683085 224.775932 
L 411.704331 228.913941 
L 417.725577 233.132143 
L 423.746823 237.432893 
L 429.768069 241.818638 
L 435.789316 246.291923 
L 441.810562 250.855395 
L 447.831808 255.511809 
L 453.853054 260.264035 
L 459.8743 265.115059 
L 465.895546 270.067996 
L 471.916793 275.12609 
L 477.938039 280.292728 
L 483.959285 285.571439 
L 489.980531 290.965913 
L 496.001777 296.479997 
L 502.023023 302.117716 
L 508.04427 307.883274 
L 514.065516 313.78107 
L 520.086762 319.815705 
L 526.108008 325.991999 
L 532.129254 332.314998 
L 538.150501 338.789992 
L 544.171747 345.422528 
L 550.192993 352.218428 
L 556.214239 359.183801 
L 562.235485 366.325067 
L 568.256731 373.648975 
L 574.277978 381.162621 
L 580.299224 388.873476 
L 586.32047 396.789407 
L 592.341716 404.918705 
L 598.362962 413.270115 
L 604.384208 421.852866 
L 610.405455 430.676705 
" clip-path="url(#pbd87a27d1a)" style="fill: none; stroke-dasharray: 4.44,1.92; stroke-dashoffset: 0; stroke: #ff7f0e; stroke-width: 1.2"/>
   </g>
   <g id="line2d_16">
    <path d="M 74.514545 76.742697 
L 80.535792 78.52126 
L 86.557038 80.322308 
L 92.578284 82.14627 
L 98.59953 83.993586 
L 104.620776 85.864708 
L 110.642022 87.760098 
L 116.663269 89.680233 
L 122.684515 91.625599 
L 128.705761 93.596698 
L 134.727007 95.594043 
L 140.748253 97.618161 
L 146.769499 99.669597 
L 152.790746 101.748904 
L 158.811992 103.856657 
L 164.833238 105.993442 
L 170.854484 108.159863 
L 176.87573 110.356542 
L 182.896977 112.584116 
L 188.918223 114.843242 
L 194.939469 117.134595 
L 200.960715 119.458871 
L 206.981961 121.816782 
L 213.003207 124.209066 
L 219.024454 126.636478 
L 225.0457 129.099799 
L 231.066946 131.599831 
L 237.088192 134.137401 
L 243.109438 136.713361 
L 249.130684 139.328589 
L 255.151931 141.983989 
L 261.173177 144.680494 
L 267.194423 147.419067 
L 273.215669 150.200699 
L 279.236915 153.026414 
L 285.258161 155.897268 
L 291.279408 158.814351 
L 297.300654 161.77879 
L 303.3219 164.791747 
L 309.343146 167.854422 
L 315.364392 170.968057 
L 321.385638 174.133934 
L 327.406885 177.35338 
L 333.428131 180.627764 
L 339.449377 183.958507 
L 345.470623 187.347075 
L 351.491869 190.794987 
L 357.513115 194.303816 
L 363.534362 197.875192 
L 369.555608 201.510801 
L 375.576854 205.212392 
L 381.5981 208.981777 
L 387.619346 212.820837 
L 393.640592 216.731521 
L 399.661839 220.715853 
L 405.683085 224.775932 
L 411.704331 228.913941 
L 417.725577 233.132143 
L 423.746823 249.807178 
L 429.768069 252.556138 
L 435.789316 255.359967 
L 441.810562 258.220325 
L 447.831808 261.138939 
L 453.853054 264.117606 
L 459.8743 267.158201 
L 465.895546 270.262673 
L 471.916793 273.433058 
L 477.938039 276.671476 
L 483.959285 279.980142 
L 489.980531 283.361367 
L 496.001777 286.817564 
L 502.023023 290.351253 
L 508.04427 293.965072 
L 514.065516 297.661777 
L 520.086762 301.444251 
L 526.108008 305.315517 
L 532.129254 309.278736 
L 538.150501 313.337225 
L 544.171747 317.494461 
L 550.192993 321.754092 
L 556.214239 326.119948 
L 562.235485 330.596053 
L 568.256731 335.186636 
L 574.277978 339.896146 
L 580.299224 344.729266 
L 586.32047 349.690926 
L 592.341716 352.433184 
L 598.362962 355.070471 
L 604.384208 357.780814 
L 610.405455 360.567289 
" clip-path="url(#pbd87a27d1a)" style="fill: none; stroke: #2ca02c; stroke-width: 1.8; stroke-linecap: square"/>
   </g>
   <g id="line2d_17">
    <path d="M 74.514545 76.742697 
L 80.535792 78.52126 
L 86.557038 80.322308 
L 92.578284 82.14627 
L 98.59953 83.993586 
L 104.620776 85.864708 
L 110.642022 87.760098 
L 116.663269 89.680233 
L 122.684515 91.625599 
L 128.705761 93.596698 
L 134.727007 95.368368 
L 140.748253 97.147442 
L 146.769499 98.934071 
L 152.790746 100.983532 
L 158.811992 103.06103 
L 164.833238 105.167143 
L 170.854484 107.302467 
L 176.87573 109.467615 
L 182.896977 111.356247 
L 188.918223 112.936584 
L 194.939469 116.381451 
L 200.960715 120.397867 
L 206.981961 121.963239 
L 213.003207 124.241059 
L 219.024454 126.178124 
L 225.0457 128.125807 
L 231.066946 130.084345 
L 237.088192 131.64389 
L 243.109438 133.612554 
L 249.130684 135.942074 
L 255.151931 139.575368 
L 261.173177 141.566198 
L 267.194423 144.042706 
L 273.215669 146.071203 
L 279.236915 149.331817 
L 285.258161 152.605563 
L 291.279408 154.308264 
L 297.300654 156.889737 
L 303.3219 158.399931 
L 309.343146 162.333394 
L 315.364392 162.639933 
L 321.385638 163.487614 
L 327.406885 165.459588 
L 333.428131 166.795226 
L 339.449377 172.418234 
L 345.470623 174.950917 
L 351.491869 178.683189 
L 357.513115 180.301321 
L 363.534362 183.941333 
L 369.555608 183.655597 
L 375.576854 186.276819 
L 381.5981 190.165343 
L 387.619346 191.7435 
L 393.640592 194.870668 
L 399.661839 200.449393 
L 405.683085 199.384015 
L 411.704331 202.452214 
L 417.725577 205.532615 
L 423.746823 208.625576 
L 429.768069 214.464038 
L 435.789316 216.887706 
L 441.810562 218.735842 
L 447.831808 220.825249 
L 453.853054 221.663087 
L 459.8743 219.357306 
L 465.895546 219.154779 
L 471.916793 218.683901 
L 477.938039 222.781813 
L 483.959285 228.108564 
L 489.980531 233.445174 
L 496.001777 235.134089 
L 502.023023 233.197522 
L 508.04427 231.051151 
L 514.065516 235.035919 
L 520.086762 241.365015 
L 526.108008 244.09321 
L 532.129254 250.486166 
L 538.150501 253.228367 
L 544.171747 251.714875 
L 550.192993 257.798208 
L 556.214239 265.30727 
L 562.235485 270.68437 
L 568.256731 267.682643 
L 574.277978 271.470367 
L 580.299224 278.295334 
L 586.32047 283.823097 
L 592.341716 278.789129 
L 598.362962 285.737273 
L 604.384208 295.113821 
L 610.405455 295.944697 
" clip-path="url(#pbd87a27d1a)" style="fill: none; stroke: #d62728; stroke-width: 1.8; stroke-linecap: square"/>
   </g>
   <g id="line2d_18">
    <path d="M 74.514545 76.742697 
L 80.535792 78.52126 
L 86.557038 80.322308 
L 92.578284 82.14627 
L 98.59953 83.993586 
L 104.620776 86.725756 
L 110.642022 88.414817 
L 116.663269 90.11001 
L 122.684515 92.018144 
L 128.705761 93.519282 
L 134.727007 95.233612 
L 140.748253 97.938512 
L 146.769499 101.120902 
L 152.790746 103.11067 
L 158.811992 105.816535 
L 164.833238 107.840857 
L 170.854484 109.035861 
L 176.87573 109.30754 
L 182.896977 110.401048 
L 188.918223 112.093785 
L 194.939469 115.341311 
L 200.960715 116.379102 
L 206.981961 118.08126 
L 213.003207 122.591635 
L 219.024454 123.945437 
L 225.0457 126.055171 
L 231.066946 131.854229 
L 237.088192 133.617462 
L 243.109438 134.966506 
L 249.130684 137.953166 
L 255.151931 139.281314 
L 261.173177 141.513349 
L 267.194423 143.306565 
L 273.215669 145.841147 
L 279.236915 146.137691 
L 285.258161 147.903684 
L 291.279408 150.206645 
L 297.300654 152.13924 
L 303.3219 153.917878 
L 309.343146 156.353621 
L 315.364392 158.136051 
L 321.385638 163.585812 
L 327.406885 164.770511 
L 333.428131 165.842262 
L 339.449377 173.66481 
L 345.470623 176.06437 
L 351.491869 177.14359 
L 357.513115 176.104881 
L 363.534362 178.514278 
L 369.555608 178.769648 
L 375.576854 178.213102 
L 381.5981 182.75132 
L 387.619346 184.822146 
L 393.640592 186.449349 
L 399.661839 191.742116 
L 405.683085 194.228672 
L 411.704331 197.11868 
L 417.725577 203.339776 
L 423.746823 203.240161 
L 429.768069 205.84223 
L 435.789316 209.715531 
L 441.810562 212.673787 
L 447.831808 215.642627 
L 453.853054 221.266691 
L 459.8743 219.904847 
L 465.895546 225.25125 
L 471.916793 226.13428 
L 477.938039 230.317365 
L 483.959285 234.374308 
L 489.980531 236.119065 
L 496.001777 237.73489 
L 502.023023 239.304928 
L 508.04427 242.046917 
L 514.065516 244.739934 
L 520.086762 244.864475 
L 526.108008 244.768688 
L 532.129254 244.635871 
L 538.150501 243.163328 
L 544.171747 248.065892 
L 550.192993 254.422625 
L 556.214239 259.092214 
L 562.235485 265.517765 
L 568.256731 266.126562 
L 574.277978 267.812485 
L 580.299224 270.169906 
L 586.32047 276.954839 
L 592.341716 279.029044 
L 598.362962 274.403833 
L 604.384208 281.786023 
L 610.405455 283.751755 
" clip-path="url(#pbd87a27d1a)" style="fill: none; stroke: #9467bd; stroke-width: 1.8; stroke-linecap: square"/>
   </g>
   <g id="line2d_19">
    <path d="M 74.514545 76.878174 
L 80.535792 78.588658 
L 86.557038 80.168162 
L 92.578284 81.752249 
L 98.59953 84.730471 
L 104.620776 86.153819 
L 110.642022 89.159677 
L 116.663269 92.188859 
L 122.684515 93.815842 
L 128.705761 95.448218 
L 134.727007 97.31177 
L 140.748253 100.419596 
L 146.769499 102.333614 
L 152.790746 104.273638 
L 158.811992 106.240202 
L 164.833238 109.177714 
L 170.854484 110.331255 
L 176.87573 114.481026 
L 182.896977 116.199126 
L 188.918223 119.143586 
L 194.939469 120.218488 
L 200.960715 121.256278 
L 206.981961 122.607294 
L 213.003207 123.579867 
L 219.024454 125.635618 
L 225.0457 126.949801 
L 231.066946 128.645178 
L 237.088192 131.97709 
L 243.109438 133.276833 
L 249.130684 134.559216 
L 255.151931 136.271474 
L 261.173177 137.991363 
L 267.194423 139.245421 
L 273.215669 143.406393 
L 279.236915 146.856515 
L 285.258161 151.238239 
L 291.279408 150.858506 
L 297.300654 152.67763 
L 303.3219 153.784174 
L 309.343146 155.516614 
L 315.364392 157.783044 
L 321.385638 162.44835 
L 327.406885 164.081435 
L 333.428131 165.704935 
L 339.449377 167.180095 
L 345.470623 167.423469 
L 351.491869 168.288226 
L 357.513115 169.823147 
L 363.534362 170.437812 
L 369.555608 174.857381 
L 375.576854 176.338797 
L 381.5981 179.044308 
L 387.619346 179.748891 
L 393.640592 182.859711 
L 399.661839 182.24494 
L 405.683085 186.917543 
L 411.704331 187.31518 
L 417.725577 190.754581 
L 423.746823 193.333098 
L 429.768069 198.058988 
L 435.789316 201.883817 
L 441.810562 202.555612 
L 447.831808 206.114253 
L 453.853054 205.461026 
L 459.8743 205.937465 
L 465.895546 209.820518 
L 471.916793 211.083375 
L 477.938039 211.237766 
L 483.959285 211.427244 
L 489.980531 215.112979 
L 496.001777 216.306673 
L 502.023023 221.092063 
L 508.04427 218.482191 
L 514.065516 219.447969 
L 520.086762 225.149251 
L 526.108008 228.288181 
L 532.129254 230.357675 
L 538.150501 232.418297 
L 544.171747 238.329338 
L 550.192993 239.935247 
L 556.214239 240.179472 
L 562.235485 239.974167 
L 568.256731 241.101406 
L 574.277978 249.283003 
L 580.299224 250.603595 
L 586.32047 257.154279 
L 592.341716 260.512863 
L 598.362962 263.403534 
L 604.384208 265.053659 
L 610.405455 266.681637 
" clip-path="url(#pbd87a27d1a)" style="fill: none; stroke: #8c564b; stroke-width: 1.8; stroke-linecap: square"/>
   </g>
   <g id="line2d_20">
    <path d="M 74.514545 77.826514 
L 80.535792 79.45258 
L 86.557038 81.236393 
L 92.578284 82.720238 
L 98.59953 84.532199 
L 104.620776 86.367509 
L 110.642022 87.662049 
L 116.663269 90.737167 
L 122.684515 92.617377 
L 128.705761 93.441867 
L 134.727007 95.098856 
L 140.748253 96.526354 
L 146.769499 98.430557 
L 152.790746 101.324802 
L 158.811992 103.271195 
L 164.833238 107.407554 
L 170.854484 110.331255 
L 176.87573 111.746128 
L 182.896977 113.45357 
L 188.918223 115.167927 
L 194.939469 117.218085 
L 200.960715 118.278117 
L 206.981961 120.519848 
L 213.003207 122.229046 
L 219.024454 122.822827 
L 225.0457 122.967254 
L 231.066946 126.232029 
L 237.088192 127.077944 
L 243.109438 131.164743 
L 249.130684 134.388217 
L 255.151931 137.243538 
L 261.173177 138.723695 
L 267.194423 140.605476 
L 273.215669 141.707816 
L 279.236915 145.009216 
L 285.258161 146.610375 
L 291.279408 147.852484 
L 297.300654 149.423539 
L 303.3219 151.662882 
L 309.343146 155.09811 
L 315.364392 157.876368 
L 321.385638 160.660324 
L 327.406885 163.450125 
L 333.428131 165.65916 
L 339.449377 167.257744 
L 345.470623 168.198229 
L 351.491869 168.969407 
L 357.513115 168.948529 
L 363.534362 171.657107 
L 369.555608 175.344221 
L 375.576854 179.99668 
L 381.5981 184.689685 
L 387.619346 186.985774 
L 393.640592 189.738714 
L 399.661839 191.27828 
L 405.683085 197.701111 
L 411.704331 197.881616 
L 417.725577 198.495681 
L 423.746823 205.170512 
L 429.768069 208.78203 
L 435.789316 211.494581 
L 441.810562 215.431949 
L 447.831808 218.384177 
L 453.853054 218.858209 
L 459.8743 220.510692 
L 465.895546 222.121045 
L 471.916793 223.687926 
L 477.938039 228.648031 
L 483.959285 230.258859 
L 489.980531 236.472019 
L 496.001777 241.554984 
L 502.023023 241.776323 
L 508.04427 240.628555 
L 514.065516 238.089747 
L 520.086762 241.633769 
L 526.108008 242.679287 
L 532.129254 239.587819 
L 538.150501 240.414054 
L 544.171747 241.171392 
L 550.192993 245.51517 
L 556.214239 246.126952 
L 562.235485 250.923183 
L 568.256731 255.442925 
L 574.277978 255.922787 
L 580.299224 258.348193 
L 586.32047 260.611108 
L 592.341716 261.972072 
L 598.362962 269.859797 
L 604.384208 277.72959 
L 610.405455 280.093873 
" clip-path="url(#pbd87a27d1a)" style="fill: none; stroke: #e377c2; stroke-width: 1.8; stroke-linecap: square"/>
   </g>
   <g id="line2d_21">
    <path d="M 74.514545 77.149129 
L 80.535792 79.807952 
L 86.557038 83.826045 
L 92.578284 85.087468 
L 98.59953 87.537501 
L 104.620776 88.916086 
L 110.642022 91.688408 
L 116.663269 93.443172 
L 122.684515 94.80762 
L 128.705761 96.373979 
L 134.727007 97.493609 
L 140.748253 98.579214 
L 146.769499 100.120456 
L 152.790746 101.155824 
L 158.811992 103.639819 
L 164.833238 104.337486 
L 170.854484 105.834579 
L 176.87573 108.554847 
L 182.896977 109.138881 
L 188.918223 110.615434 
L 194.939469 115.424801 
L 200.960715 117.237513 
L 206.981961 122.032056 
L 213.003207 124.369031 
L 219.024454 127.060814 
L 225.0457 130.975636 
L 231.066946 131.685236 
L 237.088192 132.698414 
L 243.109438 133.26761 
L 249.130684 134.659584 
L 255.151931 135.158938 
L 261.173177 136.530475 
L 267.194423 139.869334 
L 273.215669 140.258467 
L 279.236915 141.596738 
L 285.258161 145.375499 
L 291.279408 147.245782 
L 297.300654 149.823373 
L 303.3219 151.183945 
L 309.343146 151.975429 
L 315.364392 153.958802 
L 321.385638 157.117006 
L 327.406885 160.293577 
L 333.428131 162.221832 
L 339.449377 164.197966 
L 345.470623 166.763018 
L 351.491869 169.868397 
L 357.513115 171.025207 
L 363.534362 174.260876 
L 369.555608 178.019651 
L 375.576854 181.780257 
L 381.5981 186.310944 
L 387.619346 189.661009 
L 393.640592 190.634986 
L 399.661839 192.754751 
L 405.683085 195.267159 
L 411.704331 196.561689 
L 417.725577 198.74143 
L 423.746823 200.689426 
L 429.768069 202.892791 
L 435.789316 205.685289 
L 441.810562 206.24791 
L 447.831808 205.960289 
L 453.853054 207.312547 
L 459.8743 209.471136 
L 465.895546 210.773412 
L 471.916793 212.025674 
L 477.938039 210.897619 
L 483.959285 212.019699 
L 489.980531 214.305464 
L 496.001777 217.688179 
L 502.023023 221.124869 
L 508.04427 224.556543 
L 514.065516 225.494103 
L 520.086762 227.667052 
L 526.108008 229.725001 
L 532.129254 229.277398 
L 538.150501 232.588295 
L 544.171747 234.469723 
L 550.192993 238.950202 
L 556.214239 242.201493 
L 562.235485 246.963556 
L 568.256731 250.228961 
L 574.277978 254.703493 
L 580.299224 253.880648 
L 586.32047 261.953629 
L 592.341716 262.69839 
L 598.362962 267.088068 
L 604.384208 272.683536 
L 610.405455 278.264931 
" clip-path="url(#pbd87a27d1a)" style="fill: none; stroke: #7f7f7f; stroke-width: 1.8; stroke-linecap: square"/>
   </g>
   <g id="patch_3">
    <path d="M 47.72 462.04 
L 47.72 26.88 
" style="fill: none; stroke: #000000; stroke-width: 0.8; stroke-linejoin: miter; stroke-linecap: square"/>
   </g>
   <g id="patch_4">
    <path d="M 637.2 462.04 
L 637.2 26.88 
" style="fill: none; stroke: #000000; stroke-width: 0.8; stroke-linejoin: miter; stroke-linecap: square"/>
   </g>
   <g id="patch_5">
    <path d="M 47.72 462.04 
L 637.2 462.04 
" style="fill: none; stroke: #000000; stroke-width: 0.8; stroke-linejoin: miter; stroke-linecap: square"/>
   </g>
   <g id="patch_6">
    <path d="M 47.72 26.88 
L 637.2 26.88 
" style="fill: none; stroke: #000000; stroke-width: 0.8; stroke-linejoin: miter; stroke-linecap: square"/>
   </g>
   <g id="text_16">
    <!-- DCA (bootstrap CI)  ext -->
    <g transform="translate(266.8525 20.88) scale(0.12 -0.12)">
     <defs>
      <path id="DejaVuSans-44" d="M 1259 4147 
L 1259 519 
L 2022 519 
Q 2988 519 3436 956 
Q 3884 1394 3884 2338 
Q 3884 3275 3436 3711 
Q 2988 4147 2022 4147 
L 1259 4147 
z
M 628 4666 
L 1925 4666 
Q 3281 4666 3915 4102 
Q 4550 3538 4550 2338 
Q 4550 1131 3912 565 
Q 3275 0 1925 0 
L 628 0 
L 628 4666 
z
" transform="scale(0.015625)"/>
      <path id="DejaVuSans-43" d="M 4122 4306 
L 4122 3641 
Q 3803 3938 3442 4084 
Q 3081 4231 2675 4231 
Q 1875 4231 1450 3742 
Q 1025 3253 1025 2328 
Q 1025 1406 1450 917 
Q 1875 428 2675 428 
Q 3081 428 3442 575 
Q 3803 722 4122 1019 
L 4122 359 
Q 3791 134 3420 21 
Q 3050 -91 2638 -91 
Q 1578 -91 968 557 
Q 359 1206 359 2328 
Q 359 3453 968 4101 
Q 1578 4750 2638 4750 
Q 3056 4750 3426 4639 
Q 3797 4528 4122 4306 
z
" transform="scale(0.015625)"/>
      <path id="DejaVuSans-41" d="M 2188 4044 
L 1331 1722 
L 3047 1722 
L 2188 4044 
z
M 1831 4666 
L 2547 4666 
L 4325 0 
L 3669 0 
L 3244 1197 
L 1141 1197 
L 716 0 
L 50 0 
L 1831 4666 
z
" transform="scale(0.015625)"/>
      <path id="DejaVuSans-28" d="M 1984 4856 
Q 1566 4138 1362 3434 
Q 1159 2731 1159 2009 
Q 1159 1288 1364 580 
Q 1569 -128 1984 -844 
L 1484 -844 
Q 1016 -109 783 600 
Q 550 1309 550 2009 
Q 550 2706 781 3412 
Q 1013 4119 1484 4856 
L 1984 4856 
z
" transform="scale(0.015625)"/>
      <path id="DejaVuSans-49" d="M 628 4666 
L 1259 4666 
L 1259 0 
L 628 0 
L 628 4666 
z
" transform="scale(0.015625)"/>
      <path id="DejaVuSans-29" d="M 513 4856 
L 1013 4856 
Q 1481 4119 1714 3412 
Q 1947 2706 1947 2009 
Q 1947 1309 1714 600 
Q 1481 -109 1013 -844 
L 513 -844 
Q 928 -128 1133 580 
Q 1338 1288 1338 2009 
Q 1338 2731 1133 3434 
Q 928 4138 513 4856 
z
" transform="scale(0.015625)"/>
      <path id="DejaVuSans-2014" d="M 313 1978 
L 6088 1978 
L 6088 1528 
L 313 1528 
L 313 1978 
z
" transform="scale(0.015625)"/>
      <path id="DejaVuSans-78" d="M 3513 3500 
L 2247 1797 
L 3578 0 
L 2900 0 
L 1881 1375 
L 863 0 
L 184 0 
L 1544 1831 
L 300 3500 
L 978 3500 
L 1906 2253 
L 2834 3500 
L 3513 3500 
z
" transform="scale(0.015625)"/>
     </defs>
     <use xlink:href="#DejaVuSans-44"/>
     <use xlink:href="#DejaVuSans-43" transform="translate(77.001953 0)"/>
     <use xlink:href="#DejaVuSans-41" transform="translate(146.826172 0)"/>
     <use xlink:href="#DejaVuSans-20" transform="translate(215.234375 0)"/>
     <use xlink:href="#DejaVuSans-28" transform="translate(247.021484 0)"/>
     <use xlink:href="#DejaVuSans-62" transform="translate(286.035156 0)"/>
     <use xlink:href="#DejaVuSans-6f" transform="translate(349.511719 0)"/>
     <use xlink:href="#DejaVuSans-6f" transform="translate(410.693359 0)"/>
     <use xlink:href="#DejaVuSans-74" transform="translate(471.875 0)"/>
     <use xlink:href="#DejaVuSans-73" transform="translate(511.083984 0)"/>
     <use xlink:href="#DejaVuSans-74" transform="translate(563.183594 0)"/>
     <use xlink:href="#DejaVuSans-72" transform="translate(602.392578 0)"/>
     <use xlink:href="#DejaVuSans-61" transform="translate(643.505859 0)"/>
     <use xlink:href="#DejaVuSans-70" transform="translate(704.785156 0)"/>
     <use xlink:href="#DejaVuSans-20" transform="translate(768.261719 0)"/>
     <use xlink:href="#DejaVuSans-43" transform="translate(800.048828 0)"/>
     <use xlink:href="#DejaVuSans-49" transform="translate(869.873047 0)"/>
     <use xlink:href="#DejaVuSans-29" transform="translate(899.365234 0)"/>
     <use xlink:href="#DejaVuSans-20" transform="translate(938.378906 0)"/>
     <use xlink:href="#DejaVuSans-2014" transform="translate(970.166016 0)"/>
     <use xlink:href="#DejaVuSans-20" transform="translate(1070.166016 0)"/>
     <use xlink:href="#DejaVuSans-65" transform="translate(1101.953125 0)"/>
     <use xlink:href="#DejaVuSans-78" transform="translate(1161.726562 0)"/>
     <use xlink:href="#DejaVuSans-74" transform="translate(1220.90625 0)"/>
    </g>
   </g>
   <g id="legend_1">
    <g id="patch_7">
     <path d="M 538.191562 141.264375 
L 630.9 141.264375 
Q 632.7 141.264375 632.7 139.464375 
L 632.7 33.18 
Q 632.7 31.38 630.9 31.38 
L 538.191562 31.38 
Q 536.391562 31.38 536.391562 33.18 
L 536.391562 139.464375 
Q 536.391562 141.264375 538.191562 141.264375 
z
" style="fill: #ffffff; opacity: 0.8; stroke: #cccccc; stroke-linejoin: miter"/>
    </g>
    <g id="line2d_22">
     <path d="M 539.991562 38.668594 
L 548.991562 38.668594 
L 557.991562 38.668594 
" style="fill: none; stroke-dasharray: 4.44,1.92; stroke-dashoffset: 0; stroke: #1f77b4; stroke-width: 1.2"/>
    </g>
    <g id="text_17">
     <!-- Treat none -->
     <g transform="translate(565.191563 41.818594) scale(0.09 -0.09)">
      <use xlink:href="#DejaVuSans-54"/>
      <use xlink:href="#DejaVuSans-72" transform="translate(46.333984 0)"/>
      <use xlink:href="#DejaVuSans-65" transform="translate(85.197266 0)"/>
      <use xlink:href="#DejaVuSans-61" transform="translate(146.720703 0)"/>
      <use xlink:href="#DejaVuSans-74" transform="translate(208 0)"/>
      <use xlink:href="#DejaVuSans-20" transform="translate(247.208984 0)"/>
      <use xlink:href="#DejaVuSans-6e" transform="translate(278.996094 0)"/>
      <use xlink:href="#DejaVuSans-6f" transform="translate(342.375 0)"/>
      <use xlink:href="#DejaVuSans-6e" transform="translate(403.556641 0)"/>
      <use xlink:href="#DejaVuSans-65" transform="translate(466.935547 0)"/>
     </g>
    </g>
    <g id="line2d_23">
     <path d="M 539.991562 51.878906 
L 548.991562 51.878906 
L 557.991562 51.878906 
" style="fill: none; stroke-dasharray: 4.44,1.92; stroke-dashoffset: 0; stroke: #ff7f0e; stroke-width: 1.2"/>
    </g>
    <g id="text_18">
     <!-- Treat all -->
     <g transform="translate(565.191563 55.028906) scale(0.09 -0.09)">
      <use xlink:href="#DejaVuSans-54"/>
      <use xlink:href="#DejaVuSans-72" transform="translate(46.333984 0)"/>
      <use xlink:href="#DejaVuSans-65" transform="translate(85.197266 0)"/>
      <use xlink:href="#DejaVuSans-61" transform="translate(146.720703 0)"/>
      <use xlink:href="#DejaVuSans-74" transform="translate(208 0)"/>
      <use xlink:href="#DejaVuSans-20" transform="translate(247.208984 0)"/>
      <use xlink:href="#DejaVuSans-61" transform="translate(278.996094 0)"/>
      <use xlink:href="#DejaVuSans-6c" transform="translate(340.275391 0)"/>
      <use xlink:href="#DejaVuSans-6c" transform="translate(368.058594 0)"/>
     </g>
    </g>
    <g id="line2d_24">
     <path d="M 539.991562 65.089219 
L 548.991562 65.089219 
L 557.991562 65.089219 
" style="fill: none; stroke: #2ca02c; stroke-width: 1.8; stroke-linecap: square"/>
    </g>
    <g id="text_19">
     <!-- stage5_DT -->
     <g transform="translate(565.191563 68.239219) scale(0.09 -0.09)">
      <defs>
       <path id="DejaVuSans-67" d="M 2906 1791 
Q 2906 2416 2648 2759 
Q 2391 3103 1925 3103 
Q 1463 3103 1205 2759 
Q 947 2416 947 1791 
Q 947 1169 1205 825 
Q 1463 481 1925 481 
Q 2391 481 2648 825 
Q 2906 1169 2906 1791 
z
M 3481 434 
Q 3481 -459 3084 -895 
Q 2688 -1331 1869 -1331 
Q 1566 -1331 1297 -1286 
Q 1028 -1241 775 -1147 
L 775 -588 
Q 1028 -725 1275 -790 
Q 1522 -856 1778 -856 
Q 2344 -856 2625 -561 
Q 2906 -266 2906 331 
L 2906 616 
Q 2728 306 2450 153 
Q 2172 0 1784 0 
Q 1141 0 747 490 
Q 353 981 353 1791 
Q 353 2603 747 3093 
Q 1141 3584 1784 3584 
Q 2172 3584 2450 3431 
Q 2728 3278 2906 2969 
L 2906 3500 
L 3481 3500 
L 3481 434 
z
" transform="scale(0.015625)"/>
       <path id="DejaVuSans-5f" d="M 3263 -1063 
L 3263 -1509 
L -63 -1509 
L -63 -1063 
L 3263 -1063 
z
" transform="scale(0.015625)"/>
      </defs>
      <use xlink:href="#DejaVuSans-73"/>
      <use xlink:href="#DejaVuSans-74" transform="translate(52.099609 0)"/>
      <use xlink:href="#DejaVuSans-61" transform="translate(91.308594 0)"/>
      <use xlink:href="#DejaVuSans-67" transform="translate(152.587891 0)"/>
      <use xlink:href="#DejaVuSans-65" transform="translate(216.064453 0)"/>
      <use xlink:href="#DejaVuSans-35" transform="translate(277.587891 0)"/>
      <use xlink:href="#DejaVuSans-5f" transform="translate(341.210938 0)"/>
      <use xlink:href="#DejaVuSans-44" transform="translate(391.210938 0)"/>
      <use xlink:href="#DejaVuSans-54" transform="translate(468.212891 0)"/>
     </g>
    </g>
    <g id="line2d_25">
     <path d="M 539.991562 78.549844 
L 548.991562 78.549844 
L 557.991562 78.549844 
" style="fill: none; stroke: #d62728; stroke-width: 1.8; stroke-linecap: square"/>
    </g>
    <g id="text_20">
     <!-- stage5_RF -->
     <g transform="translate(565.191563 81.699844) scale(0.09 -0.09)">
      <defs>
       <path id="DejaVuSans-52" d="M 2841 2188 
Q 3044 2119 3236 1894 
Q 3428 1669 3622 1275 
L 4263 0 
L 3584 0 
L 2988 1197 
Q 2756 1666 2539 1819 
Q 2322 1972 1947 1972 
L 1259 1972 
L 1259 0 
L 628 0 
L 628 4666 
L 2053 4666 
Q 2853 4666 3247 4331 
Q 3641 3997 3641 3322 
Q 3641 2881 3436 2590 
Q 3231 2300 2841 2188 
z
M 1259 4147 
L 1259 2491 
L 2053 2491 
Q 2509 2491 2742 2702 
Q 2975 2913 2975 3322 
Q 2975 3731 2742 3939 
Q 2509 4147 2053 4147 
L 1259 4147 
z
" transform="scale(0.015625)"/>
       <path id="DejaVuSans-46" d="M 628 4666 
L 3309 4666 
L 3309 4134 
L 1259 4134 
L 1259 2759 
L 3109 2759 
L 3109 2228 
L 1259 2228 
L 1259 0 
L 628 0 
L 628 4666 
z
" transform="scale(0.015625)"/>
      </defs>
      <use xlink:href="#DejaVuSans-73"/>
      <use xlink:href="#DejaVuSans-74" transform="translate(52.099609 0)"/>
      <use xlink:href="#DejaVuSans-61" transform="translate(91.308594 0)"/>
      <use xlink:href="#DejaVuSans-67" transform="translate(152.587891 0)"/>
      <use xlink:href="#DejaVuSans-65" transform="translate(216.064453 0)"/>
      <use xlink:href="#DejaVuSans-35" transform="translate(277.587891 0)"/>
      <use xlink:href="#DejaVuSans-5f" transform="translate(341.210938 0)"/>
      <use xlink:href="#DejaVuSans-52" transform="translate(391.210938 0)"/>
      <use xlink:href="#DejaVuSans-46" transform="translate(460.693359 0)"/>
     </g>
    </g>
    <g id="line2d_26">
     <path d="M 539.991562 92.010469 
L 548.991562 92.010469 
L 557.991562 92.010469 
" style="fill: none; stroke: #9467bd; stroke-width: 1.8; stroke-linecap: square"/>
    </g>
    <g id="text_21">
     <!-- stage5_XGB -->
     <g transform="translate(565.191563 95.160469) scale(0.09 -0.09)">
      <defs>
       <path id="DejaVuSans-58" d="M 403 4666 
L 1081 4666 
L 2241 2931 
L 3406 4666 
L 4084 4666 
L 2584 2425 
L 4184 0 
L 3506 0 
L 2194 1984 
L 872 0 
L 191 0 
L 1856 2491 
L 403 4666 
z
" transform="scale(0.015625)"/>
       <path id="DejaVuSans-47" d="M 3809 666 
L 3809 1919 
L 2778 1919 
L 2778 2438 
L 4434 2438 
L 4434 434 
Q 4069 175 3628 42 
Q 3188 -91 2688 -91 
Q 1594 -91 976 548 
Q 359 1188 359 2328 
Q 359 3472 976 4111 
Q 1594 4750 2688 4750 
Q 3144 4750 3555 4637 
Q 3966 4525 4313 4306 
L 4313 3634 
Q 3963 3931 3569 4081 
Q 3175 4231 2741 4231 
Q 1884 4231 1454 3753 
Q 1025 3275 1025 2328 
Q 1025 1384 1454 906 
Q 1884 428 2741 428 
Q 3075 428 3337 486 
Q 3600 544 3809 666 
z
" transform="scale(0.015625)"/>
       <path id="DejaVuSans-42" d="M 1259 2228 
L 1259 519 
L 2272 519 
Q 2781 519 3026 730 
Q 3272 941 3272 1375 
Q 3272 1813 3026 2020 
Q 2781 2228 2272 2228 
L 1259 2228 
z
M 1259 4147 
L 1259 2741 
L 2194 2741 
Q 2656 2741 2882 2914 
Q 3109 3088 3109 3444 
Q 3109 3797 2882 3972 
Q 2656 4147 2194 4147 
L 1259 4147 
z
M 628 4666 
L 2241 4666 
Q 2963 4666 3353 4366 
Q 3744 4066 3744 3513 
Q 3744 3084 3544 2831 
Q 3344 2578 2956 2516 
Q 3422 2416 3680 2098 
Q 3938 1781 3938 1306 
Q 3938 681 3513 340 
Q 3088 0 2303 0 
L 628 0 
L 628 4666 
z
" transform="scale(0.015625)"/>
      </defs>
      <use xlink:href="#DejaVuSans-73"/>
      <use xlink:href="#DejaVuSans-74" transform="translate(52.099609 0)"/>
      <use xlink:href="#DejaVuSans-61" transform="translate(91.308594 0)"/>
      <use xlink:href="#DejaVuSans-67" transform="translate(152.587891 0)"/>
      <use xlink:href="#DejaVuSans-65" transform="translate(216.064453 0)"/>
      <use xlink:href="#DejaVuSans-35" transform="translate(277.587891 0)"/>
      <use xlink:href="#DejaVuSans-5f" transform="translate(341.210938 0)"/>
      <use xlink:href="#DejaVuSans-58" transform="translate(391.210938 0)"/>
      <use xlink:href="#DejaVuSans-47" transform="translate(459.716797 0)"/>
      <use xlink:href="#DejaVuSans-42" transform="translate(537.207031 0)"/>
     </g>
    </g>
    <g id="line2d_27">
     <path d="M 539.991562 105.471094 
L 548.991562 105.471094 
L 557.991562 105.471094 
" style="fill: none; stroke: #8c564b; stroke-width: 1.8; stroke-linecap: square"/>
    </g>
    <g id="text_22">
     <!-- stage5_SVM -->
     <g transform="translate(565.191563 108.621094) scale(0.09 -0.09)">
      <defs>
       <path id="DejaVuSans-53" d="M 3425 4513 
L 3425 3897 
Q 3066 4069 2747 4153 
Q 2428 4238 2131 4238 
Q 1616 4238 1336 4038 
Q 1056 3838 1056 3469 
Q 1056 3159 1242 3001 
Q 1428 2844 1947 2747 
L 2328 2669 
Q 3034 2534 3370 2195 
Q 3706 1856 3706 1288 
Q 3706 609 3251 259 
Q 2797 -91 1919 -91 
Q 1588 -91 1214 -16 
Q 841 59 441 206 
L 441 856 
Q 825 641 1194 531 
Q 1563 422 1919 422 
Q 2459 422 2753 634 
Q 3047 847 3047 1241 
Q 3047 1584 2836 1778 
Q 2625 1972 2144 2069 
L 1759 2144 
Q 1053 2284 737 2584 
Q 422 2884 422 3419 
Q 422 4038 858 4394 
Q 1294 4750 2059 4750 
Q 2388 4750 2728 4690 
Q 3069 4631 3425 4513 
z
" transform="scale(0.015625)"/>
       <path id="DejaVuSans-56" d="M 1831 0 
L 50 4666 
L 709 4666 
L 2188 738 
L 3669 4666 
L 4325 4666 
L 2547 0 
L 1831 0 
z
" transform="scale(0.015625)"/>
       <path id="DejaVuSans-4d" d="M 628 4666 
L 1569 4666 
L 2759 1491 
L 3956 4666 
L 4897 4666 
L 4897 0 
L 4281 0 
L 4281 4097 
L 3078 897 
L 2444 897 
L 1241 4097 
L 1241 0 
L 628 0 
L 628 4666 
z
" transform="scale(0.015625)"/>
      </defs>
      <use xlink:href="#DejaVuSans-73"/>
      <use xlink:href="#DejaVuSans-74" transform="translate(52.099609 0)"/>
      <use xlink:href="#DejaVuSans-61" transform="translate(91.308594 0)"/>
      <use xlink:href="#DejaVuSans-67" transform="translate(152.587891 0)"/>
      <use xlink:href="#DejaVuSans-65" transform="translate(216.064453 0)"/>
      <use xlink:href="#DejaVuSans-35" transform="translate(277.587891 0)"/>
      <use xlink:href="#DejaVuSans-5f" transform="translate(341.210938 0)"/>
      <use xlink:href="#DejaVuSans-53" transform="translate(391.210938 0)"/>
      <use xlink:href="#DejaVuSans-56" transform="translate(454.6875 0)"/>
      <use xlink:href="#DejaVuSans-4d" transform="translate(523.095703 0)"/>
     </g>
    </g>
    <g id="line2d_28">
     <path d="M 539.991562 118.931719 
L 548.991562 118.931719 
L 557.991562 118.931719 
" style="fill: none; stroke: #e377c2; stroke-width: 1.8; stroke-linecap: square"/>
    </g>
    <g id="text_23">
     <!-- stage5_GBDT -->
     <g transform="translate(565.191563 122.081719) scale(0.09 -0.09)">
      <use xlink:href="#DejaVuSans-73"/>
      <use xlink:href="#DejaVuSans-74" transform="translate(52.099609 0)"/>
      <use xlink:href="#DejaVuSans-61" transform="translate(91.308594 0)"/>
      <use xlink:href="#DejaVuSans-67" transform="translate(152.587891 0)"/>
      <use xlink:href="#DejaVuSans-65" transform="translate(216.064453 0)"/>
      <use xlink:href="#DejaVuSans-35" transform="translate(277.587891 0)"/>
      <use xlink:href="#DejaVuSans-5f" transform="translate(341.210938 0)"/>
      <use xlink:href="#DejaVuSans-47" transform="translate(391.210938 0)"/>
      <use xlink:href="#DejaVuSans-42" transform="translate(468.701172 0)"/>
      <use xlink:href="#DejaVuSans-44" transform="translate(537.304688 0)"/>
      <use xlink:href="#DejaVuSans-54" transform="translate(614.306641 0)"/>
     </g>
    </g>
    <g id="line2d_29">
     <path d="M 539.991562 132.392344 
L 548.991562 132.392344 
L 557.991562 132.392344 
" style="fill: none; stroke: #7f7f7f; stroke-width: 1.8; stroke-linecap: square"/>
    </g>
    <g id="text_24">
     <!-- stage5_STACK -->
     <g transform="translate(565.191563 135.542344) scale(0.09 -0.09)">
      <defs>
       <path id="DejaVuSans-4b" d="M 628 4666 
L 1259 4666 
L 1259 2694 
L 3353 4666 
L 4166 4666 
L 1850 2491 
L 4331 0 
L 3500 0 
L 1259 2247 
L 1259 0 
L 628 0 
L 628 4666 
z
" transform="scale(0.015625)"/>
      </defs>
      <use xlink:href="#DejaVuSans-73"/>
      <use xlink:href="#DejaVuSans-74" transform="translate(52.099609 0)"/>
      <use xlink:href="#DejaVuSans-61" transform="translate(91.308594 0)"/>
      <use xlink:href="#DejaVuSans-67" transform="translate(152.587891 0)"/>
      <use xlink:href="#DejaVuSans-65" transform="translate(216.064453 0)"/>
      <use xlink:href="#DejaVuSans-35" transform="translate(277.587891 0)"/>
      <use xlink:href="#DejaVuSans-5f" transform="translate(341.210938 0)"/>
      <use xlink:href="#DejaVuSans-53" transform="translate(391.210938 0)"/>
      <use xlink:href="#DejaVuSans-54" transform="translate(454.6875 0)"/>
      <use xlink:href="#DejaVuSans-41" transform="translate(508.021484 0)"/>
      <use xlink:href="#DejaVuSans-43" transform="translate(574.679688 0)"/>
      <use xlink:href="#DejaVuSans-4b" transform="translate(644.503906 0)"/>
     </g>
    </g>
   </g>
  </g>
 </g>
 <defs>
  <clipPath id="pbd87a27d1a">
   <rect x="47.72" y="26.88" width="589.48" height="435.16"/>
  </clipPath>
 </defs>
</svg>
